<?xml version="1.0" encoding="UTF-8" standalone="no"?>
<svg width="48px" height="48px" viewBox="0 0 48 48" version="1.1" xmlns="http://www.w3.org/2000/svg" xmlns:xlink="http://www.w3.org/1999/xlink">
    <!-- Generator: sketchtool 39.1 (31720) - http://www.bohemiancoding.com/sketch -->
    <title>2C811803-3C40-44C1-83D9-B5D3C400FE21</title>
    <desc>Created with sketchtool.</desc>
    <defs>
        <rect id="path-1" x="0" y="0" width="600" height="956"></rect>
    </defs>
    <g id="Page-1" stroke="none" stroke-width="1" fill="none" fill-rule="evenodd">
        <g id="Math-Input" transform="translate(-318.000000, -1244.000000)"></g>
        <g id="Asset-Sheet" transform="translate(-118.000000, -148.000000)">
            <g id="math_keypad_icon_jump_out_parentheses" transform="translate(118.000000, 148.000000)">
                <rect id="bounds" fill-opacity="0" fill="#FF0088" x="0" y="0" width="48" height="48"></rect>
                <g id="icon" stroke-width="1" transform="translate(12.000000, 12.000000)">
                    <rect id="bounds" fill-opacity="0" fill="#FF0088" x="0" y="0" width="24" height="24"></rect>
                    <path d="M14.25,6 C11.25,9 11.2499999,15 14.25,18" id="arc" stroke="#888D93" stroke-width="2" stroke-linecap="round" stroke-linejoin="round" transform="translate(13.125000, 12.000000) scale(-1, 1) translate(-13.125000, -12.000000) "></path>
                    <path d="M6,6 C2.99999998,9 2.99999999,15 6,18" id="arc" stroke="#888D93" stroke-width="2" stroke-linecap="round" stroke-linejoin="round"></path>
                    <polyline id="head" stroke="#78C008" stroke-width="2" stroke-linecap="round" stroke-linejoin="round" points="20 15 23 12 20 9"></polyline>
                    <path d="M10,12 L22,12" id="tail" stroke="#78C008" stroke-width="2" stroke-linecap="round" stroke-linejoin="round"></path>
                </g>
            </g>
        </g>
        <g id="Math-Input" transform="translate(-318.000000, -1244.000000)">
            <g id="Asset-Sheet" transform="translate(200.000000, 1096.000000)">
                <mask id="mask-2" fill="white">
                    <use xlink:href="#path-1"></use>
                </mask>
                <use id="Mask" fill="#FAFAFA" xlink:href="#path-1"></use>
                <g id="math_keypad_icon_jump_out_parentheses" mask="url(#mask-2)">
                    <g transform="translate(118.000000, 148.000000)">
                        <rect id="bounds" fill-opacity="0" fill="#FF0088" x="0" y="0" width="48" height="48"></rect>
                        <g id="icon" stroke-width="1" fill="none" transform="translate(12.000000, 12.000000)">
                            <rect id="bounds" fill-opacity="0" fill="#FF0088" x="0" y="0" width="24" height="24"></rect>
                            <path d="M14.25,6 C11.25,9 11.2499999,15 14.25,18" id="arc" stroke="#888D93" stroke-width="2" stroke-linecap="round" stroke-linejoin="round" transform="translate(13.125000, 12.000000) scale(-1, 1) translate(-13.125000, -12.000000) "></path>
                            <path d="M6,6 C2.99999998,9 2.99999999,15 6,18" id="arc" stroke="#888D93" stroke-width="2" stroke-linecap="round" stroke-linejoin="round"></path>
                            <polyline id="head" stroke="#78C008" stroke-width="2" stroke-linecap="round" stroke-linejoin="round" points="20 15 23 12 20 9"></polyline>
                            <path d="M10,12 L22,12" id="tail" stroke="#78C008" stroke-width="2" stroke-linecap="round" stroke-linejoin="round"></path>
                        </g>
                    </g>
                </g>
            </g>
        </g>
    </g>
</svg>