<?xml version="1.0" encoding="UTF-8" standalone="no"?>
<svg width="48px" height="48px" viewBox="0 0 48 48" version="1.1" xmlns="http://www.w3.org/2000/svg" xmlns:xlink="http://www.w3.org/1999/xlink">
    <!-- Generator: sketchtool 39.1 (31720) - http://www.bohemiancoding.com/sketch -->
    <title>6EB4AA3B-E325-49E3-A977-4913E6413BA3</title>
    <desc>Created with sketchtool.</desc>
    <defs>
        <rect id="path-1" x="0" y="0" width="600" height="956"></rect>
    </defs>
    <g id="Page-1" stroke="none" stroke-width="1" fill="none" fill-rule="evenodd">
        <g id="Math-Input" transform="translate(-634.000000, -1954.000000)"></g>
        <g id="Asset-Sheet" transform="translate(-434.000000, -858.000000)">
            <g id="math_keypad_icon_trig_cos" transform="translate(434.000000, 858.000000)">
                <rect id="bounds" fill-opacity="0" fill="#FF0088" x="0" y="0" width="48" height="48"></rect>
                <g id="icon" stroke-width="1" transform="translate(13.000000, 12.000000)">
                    <rect id="bounds" fill-opacity="0" fill="#FF0088" x="0" y="0" width="24" height="24"></rect>
                    <path d="M5.182,17.168 C6.568,17.168 7.408,16.566 7.856,15.936 L6.694,14.858 C6.372,15.306 5.882,15.586 5.266,15.586 C4.188,15.586 3.432,14.788 3.432,13.612 C3.432,12.436 4.188,11.652 5.266,11.652 C5.882,11.652 6.372,11.904 6.694,12.38 L7.856,11.288 C7.408,10.672 6.568,10.07 5.182,10.07 C3.096,10.07 1.598,11.54 1.598,13.612 C1.598,15.698 3.096,17.168 5.182,17.168 L5.182,17.168 Z M12.154,17.168 C14.394,17.168 15.738,15.544 15.738,13.612 C15.738,11.694 14.394,10.07 12.154,10.07 C9.928,10.07 8.584,11.694 8.584,13.612 C8.584,15.544 9.928,17.168 12.154,17.168 L12.154,17.168 Z M12.154,15.586 C11.048,15.586 10.432,14.676 10.432,13.612 C10.432,12.562 11.048,11.652 12.154,11.652 C13.26,11.652 13.89,12.562 13.89,13.612 C13.89,14.676 13.26,15.586 12.154,15.586 L12.154,15.586 Z M19.49,17.168 C21.366,17.168 22.416,16.23 22.416,14.998 C22.416,12.268 18.412,13.108 18.412,12.1 C18.412,11.722 18.832,11.428 19.476,11.428 C20.302,11.428 21.072,11.778 21.478,12.212 L22.192,10.994 C21.52,10.462 20.61,10.07 19.462,10.07 C17.684,10.07 16.69,11.064 16.69,12.198 C16.69,14.858 20.708,13.948 20.708,15.068 C20.708,15.488 20.344,15.796 19.574,15.796 C18.734,15.796 17.726,15.334 17.236,14.872 L16.466,16.118 C17.18,16.776 18.314,17.168 19.49,17.168 L19.49,17.168 Z" id="cos" fill="#3B3E40"></path>
                </g>
            </g>
        </g>
        <g id="Math-Input" transform="translate(-634.000000, -1954.000000)">
            <g id="Asset-Sheet" transform="translate(200.000000, 1096.000000)">
                <mask id="mask-2" fill="white">
                    <use xlink:href="#path-1"></use>
                </mask>
                <use id="Mask" fill="#FAFAFA" xlink:href="#path-1"></use>
                <g id="math_keypad_icon_trig_cos" mask="url(#mask-2)">
                    <g transform="translate(434.000000, 858.000000)">
                        <rect id="bounds" fill-opacity="0" fill="#FF0088" x="0" y="0" width="48" height="48"></rect>
                        <g id="icon" stroke-width="1" fill="none" transform="translate(13.000000, 12.000000)">
                            <rect id="bounds" fill-opacity="0" fill="#FF0088" x="0" y="0" width="24" height="24"></rect>
                            <path d="M5.182,17.168 C6.568,17.168 7.408,16.566 7.856,15.936 L6.694,14.858 C6.372,15.306 5.882,15.586 5.266,15.586 C4.188,15.586 3.432,14.788 3.432,13.612 C3.432,12.436 4.188,11.652 5.266,11.652 C5.882,11.652 6.372,11.904 6.694,12.38 L7.856,11.288 C7.408,10.672 6.568,10.07 5.182,10.07 C3.096,10.07 1.598,11.54 1.598,13.612 C1.598,15.698 3.096,17.168 5.182,17.168 L5.182,17.168 Z M12.154,17.168 C14.394,17.168 15.738,15.544 15.738,13.612 C15.738,11.694 14.394,10.07 12.154,10.07 C9.928,10.07 8.584,11.694 8.584,13.612 C8.584,15.544 9.928,17.168 12.154,17.168 L12.154,17.168 Z M12.154,15.586 C11.048,15.586 10.432,14.676 10.432,13.612 C10.432,12.562 11.048,11.652 12.154,11.652 C13.26,11.652 13.89,12.562 13.89,13.612 C13.89,14.676 13.26,15.586 12.154,15.586 L12.154,15.586 Z M19.49,17.168 C21.366,17.168 22.416,16.23 22.416,14.998 C22.416,12.268 18.412,13.108 18.412,12.1 C18.412,11.722 18.832,11.428 19.476,11.428 C20.302,11.428 21.072,11.778 21.478,12.212 L22.192,10.994 C21.52,10.462 20.61,10.07 19.462,10.07 C17.684,10.07 16.69,11.064 16.69,12.198 C16.69,14.858 20.708,13.948 20.708,15.068 C20.708,15.488 20.344,15.796 19.574,15.796 C18.734,15.796 17.726,15.334 17.236,14.872 L16.466,16.118 C17.18,16.776 18.314,17.168 19.49,17.168 L19.49,17.168 Z" id="cos" fill="#3B3E40"></path>
                        </g>
                    </g>
                </g>
            </g>
        </g>
    </g>
</svg>