<?xml version="1.0" encoding="UTF-8" standalone="no"?>
<svg width="48px" height="48px" viewBox="0 0 48 48" version="1.1" xmlns="http://www.w3.org/2000/svg" xmlns:xlink="http://www.w3.org/1999/xlink">
    <!-- Generator: sketchtool 39.1 (31720) - http://www.bohemiancoding.com/sketch -->
    <title>85085DC7-671F-4610-9D7F-42A14A945AD5</title>
    <desc>Created with sketchtool.</desc>
    <defs>
        <rect id="path-1" x="0" y="0" width="600" height="956"></rect>
    </defs>
    <g id="Page-1" stroke="none" stroke-width="1" fill="none" fill-rule="evenodd">
        <g id="Math-Input" transform="translate(-566.000000, -1380.000000)"></g>
        <g id="Asset-Sheet" transform="translate(-366.000000, -284.000000)">
            <g id="math_keypad_icon_4" transform="translate(366.000000, 284.000000)">
                <rect id="bounds" fill-opacity="0" fill="#FF0088" x="0" y="0" width="48" height="48"></rect>
                <path d="M27.825,32 L27.825,27.775 L30.175,27.775 L30.175,25.95 L27.825,25.95 L27.825,15.325 L24.975,15.325 L17.825,26.05 L17.825,27.775 L25.75,27.775 L25.75,32 L27.825,32 Z M25.75,25.95 L19.9,25.95 L25.75,17.25 L25.75,25.95 Z" id="4" fill="#3B3E40"></path>
            </g>
        </g>
        <g id="Math-Input" transform="translate(-566.000000, -1380.000000)">
            <g id="Asset-Sheet" transform="translate(200.000000, 1096.000000)">
                <mask id="mask-2" fill="white">
                    <use xlink:href="#path-1"></use>
                </mask>
                <use id="Mask" fill="#FAFAFA" xlink:href="#path-1"></use>
                <g id="math_keypad_icon_4" mask="url(#mask-2)">
                    <g transform="translate(366.000000, 284.000000)">
                        <rect id="bounds" fill-opacity="0" fill="#FF0088" x="0" y="0" width="48" height="48"></rect>
                        <path d="M27.825,32 L27.825,27.775 L30.175,27.775 L30.175,25.95 L27.825,25.95 L27.825,15.325 L24.975,15.325 L17.825,26.05 L17.825,27.775 L25.75,27.775 L25.75,32 L27.825,32 Z M25.75,25.95 L19.9,25.95 L25.75,17.25 L25.75,25.95 Z" id="4" fill="#3B3E40"></path>
                    </g>
                </g>
            </g>
        </g>
    </g>
</svg>