<?xml version="1.0" encoding="UTF-8" standalone="no"?>
<svg width="48px" height="48px" viewBox="0 0 48 48" version="1.1" xmlns="http://www.w3.org/2000/svg" xmlns:xlink="http://www.w3.org/1999/xlink">
    <!-- Generator: sketchtool 39.1 (31720) - http://www.bohemiancoding.com/sketch -->
    <title>A955F32B-25DA-480B-964E-CE806B606E11</title>
    <desc>Created with sketchtool.</desc>
    <defs>
        <rect id="path-1" x="0" y="0" width="600" height="956"></rect>
    </defs>
    <g id="Page-1" stroke="none" stroke-width="1" fill="none" fill-rule="evenodd">
        <g id="Math-Input" transform="translate(-702.000000, -1448.000000)"></g>
        <g id="Asset-Sheet" transform="translate(-502.000000, -352.000000)">
            <g id="math_keypad_icon_3" transform="translate(502.000000, 352.000000)">
                <rect id="bounds" fill-opacity="0" fill="#FF0088" x="0" y="0" width="48" height="48"></rect>
                <path d="M23.6875,32.3 C27.3625,32.3 29.5875,30.275 29.5875,27.5 C29.5875,24.825 27.2625,23.525 25.7375,23.4 C27.3125,23.125 29.3375,21.925 29.3375,19.525 C29.3375,16.7 26.8875,15.075 23.6875,15.075 C21.1125,15.075 19.1875,16.2 17.9875,17.65 L19.1375,18.95 C20.3625,17.625 21.7125,16.925 23.5375,16.925 C25.5625,16.925 27.2625,17.925 27.2625,19.775 C27.2625,21.7 25.4875,22.525 23.3875,22.525 C22.7125,22.525 21.9375,22.525 21.6625,22.5 L21.6625,24.4 C21.9125,24.375 22.6875,24.375 23.3875,24.375 C25.8375,24.375 27.5375,25.25 27.5375,27.325 C27.5375,29.25 26.0625,30.45 23.6375,30.45 C21.6625,30.45 19.9625,29.55 18.9875,28.25 L17.7625,29.55 C18.7875,31.05 20.8625,32.3 23.6875,32.3 L23.6875,32.3 Z" id="3" fill="#3B3E40"></path>
            </g>
        </g>
        <g id="Math-Input" transform="translate(-702.000000, -1448.000000)">
            <g id="Asset-Sheet" transform="translate(200.000000, 1096.000000)">
                <mask id="mask-2" fill="white">
                    <use xlink:href="#path-1"></use>
                </mask>
                <use id="Mask" fill="#FAFAFA" xlink:href="#path-1"></use>
                <g id="math_keypad_icon_3" mask="url(#mask-2)">
                    <g transform="translate(502.000000, 352.000000)">
                        <rect id="bounds" fill-opacity="0" fill="#FF0088" x="0" y="0" width="48" height="48"></rect>
                        <path d="M23.6875,32.3 C27.3625,32.3 29.5875,30.275 29.5875,27.5 C29.5875,24.825 27.2625,23.525 25.7375,23.4 C27.3125,23.125 29.3375,21.925 29.3375,19.525 C29.3375,16.7 26.8875,15.075 23.6875,15.075 C21.1125,15.075 19.1875,16.2 17.9875,17.65 L19.1375,18.95 C20.3625,17.625 21.7125,16.925 23.5375,16.925 C25.5625,16.925 27.2625,17.925 27.2625,19.775 C27.2625,21.7 25.4875,22.525 23.3875,22.525 C22.7125,22.525 21.9375,22.525 21.6625,22.5 L21.6625,24.4 C21.9125,24.375 22.6875,24.375 23.3875,24.375 C25.8375,24.375 27.5375,25.25 27.5375,27.325 C27.5375,29.25 26.0625,30.45 23.6375,30.45 C21.6625,30.45 19.9625,29.55 18.9875,28.25 L17.7625,29.55 C18.7875,31.05 20.8625,32.3 23.6875,32.3 L23.6875,32.3 Z" id="3" fill="#3B3E40"></path>
                    </g>
                </g>
            </g>
        </g>
    </g>
</svg>