<?xml version="1.0" encoding="UTF-8" standalone="no"?>
<svg width="48px" height="48px" viewBox="0 0 48 48" version="1.1" xmlns="http://www.w3.org/2000/svg" xmlns:xlink="http://www.w3.org/1999/xlink">
    <!-- Generator: sketchtool 39.1 (31720) - http://www.bohemiancoding.com/sketch -->
    <title>44253788-7F3F-4AC9-890C-0F10EC7A21F8</title>
    <desc>Created with sketchtool.</desc>
    <defs>
        <rect id="path-1" x="0" y="0" width="600" height="956"></rect>
    </defs>
    <g id="Page-1" stroke="none" stroke-width="1" fill="none" fill-rule="evenodd">
        <g id="Math-Input" transform="translate(-702.000000, -1954.000000)"></g>
        <g id="Asset-Sheet" transform="translate(-502.000000, -858.000000)">
            <g id="math_keypad_icon_trig_tan" transform="translate(502.000000, 858.000000)">
                <rect id="bounds" fill-opacity="0" fill="#FF0088" x="0" y="0" width="48" height="48"></rect>
                <g id="icon" stroke-width="1" transform="translate(12.000000, 12.000000)">
                    <rect id="bounds" fill-opacity="0" fill="#FF0088" x="0" y="0" width="24" height="24"></rect>
                    <path d="M4.93,17.168 C5.672,17.168 6.148,16.972 6.414,16.734 L6.036,15.39 C5.938,15.488 5.686,15.586 5.42,15.586 C5.028,15.586 4.804,15.264 4.804,14.844 L4.804,11.792 L6.176,11.792 L6.176,10.238 L4.804,10.238 L4.804,8.39 L3.012,8.39 L3.012,10.238 L1.892,10.238 L1.892,11.792 L3.012,11.792 L3.012,15.32 C3.012,16.524 3.684,17.168 4.93,17.168 L4.93,17.168 Z M13.232,17 L13.232,12.632 C13.232,10.686 11.818,10.07 10.278,10.07 C9.214,10.07 8.15,10.406 7.324,11.134 L7.996,12.324 C8.57,11.792 9.242,11.526 9.97,11.526 C10.866,11.526 11.454,11.974 11.454,12.66 L11.454,13.57 C11.006,13.038 10.208,12.744 9.312,12.744 C8.234,12.744 6.96,13.346 6.96,14.928 C6.96,16.44 8.234,17.168 9.312,17.168 C10.194,17.168 10.992,16.846 11.454,16.3 L11.454,17 L13.232,17 Z M10.026,15.964 C9.326,15.964 8.752,15.6 8.752,14.97 C8.752,14.312 9.326,13.948 10.026,13.948 C10.6,13.948 11.16,14.144 11.454,14.536 L11.454,15.376 C11.16,15.768 10.6,15.964 10.026,15.964 L10.026,15.964 Z M21.338,17 L21.338,12.226 C21.338,10.91 20.624,10.07 19.14,10.07 C18.034,10.07 17.208,10.602 16.774,11.12 L16.774,10.238 L14.996,10.238 L14.996,17 L16.774,17 L16.774,12.45 C17.068,12.044 17.614,11.652 18.314,11.652 C19.07,11.652 19.56,11.974 19.56,12.912 L19.56,17 L21.338,17 Z" id="tan" fill="#3B3E40"></path>
                </g>
            </g>
        </g>
        <g id="Math-Input" transform="translate(-702.000000, -1954.000000)">
            <g id="Asset-Sheet" transform="translate(200.000000, 1096.000000)">
                <mask id="mask-2" fill="white">
                    <use xlink:href="#path-1"></use>
                </mask>
                <use id="Mask" fill="#FAFAFA" xlink:href="#path-1"></use>
                <g id="math_keypad_icon_trig_tan" mask="url(#mask-2)">
                    <g transform="translate(502.000000, 858.000000)">
                        <rect id="bounds" fill-opacity="0" fill="#FF0088" x="0" y="0" width="48" height="48"></rect>
                        <g id="icon" stroke-width="1" fill="none" transform="translate(12.000000, 12.000000)">
                            <rect id="bounds" fill-opacity="0" fill="#FF0088" x="0" y="0" width="24" height="24"></rect>
                            <path d="M4.93,17.168 C5.672,17.168 6.148,16.972 6.414,16.734 L6.036,15.39 C5.938,15.488 5.686,15.586 5.42,15.586 C5.028,15.586 4.804,15.264 4.804,14.844 L4.804,11.792 L6.176,11.792 L6.176,10.238 L4.804,10.238 L4.804,8.39 L3.012,8.39 L3.012,10.238 L1.892,10.238 L1.892,11.792 L3.012,11.792 L3.012,15.32 C3.012,16.524 3.684,17.168 4.93,17.168 L4.93,17.168 Z M13.232,17 L13.232,12.632 C13.232,10.686 11.818,10.07 10.278,10.07 C9.214,10.07 8.15,10.406 7.324,11.134 L7.996,12.324 C8.57,11.792 9.242,11.526 9.97,11.526 C10.866,11.526 11.454,11.974 11.454,12.66 L11.454,13.57 C11.006,13.038 10.208,12.744 9.312,12.744 C8.234,12.744 6.96,13.346 6.96,14.928 C6.96,16.44 8.234,17.168 9.312,17.168 C10.194,17.168 10.992,16.846 11.454,16.3 L11.454,17 L13.232,17 Z M10.026,15.964 C9.326,15.964 8.752,15.6 8.752,14.97 C8.752,14.312 9.326,13.948 10.026,13.948 C10.6,13.948 11.16,14.144 11.454,14.536 L11.454,15.376 C11.16,15.768 10.6,15.964 10.026,15.964 L10.026,15.964 Z M21.338,17 L21.338,12.226 C21.338,10.91 20.624,10.07 19.14,10.07 C18.034,10.07 17.208,10.602 16.774,11.12 L16.774,10.238 L14.996,10.238 L14.996,17 L16.774,17 L16.774,12.45 C17.068,12.044 17.614,11.652 18.314,11.652 C19.07,11.652 19.56,11.974 19.56,12.912 L19.56,17 L21.338,17 Z" id="tan" fill="#3B3E40"></path>
                        </g>
                    </g>
                </g>
            </g>
        </g>
    </g>
</svg>