<?xml version="1.0" encoding="UTF-8" standalone="no"?>
<svg width="48px" height="48px" viewBox="0 0 48 48" version="1.1" xmlns="http://www.w3.org/2000/svg" xmlns:xlink="http://www.w3.org/1999/xlink">
    <!-- Generator: sketchtool 39.1 (31720) - http://www.bohemiancoding.com/sketch -->
    <title>8FD1FC98-34E3-4454-9D10-5F787EF0807D</title>
    <desc>Created with sketchtool.</desc>
    <defs>
        <rect id="path-1" x="0" y="0" width="600" height="956"></rect>
    </defs>
    <g id="Page-1" stroke="none" stroke-width="1" fill="none" fill-rule="evenodd">
        <g id="Math-Input" transform="translate(-702.000000, -1886.000000)"></g>
        <g id="Asset-Sheet" transform="translate(-502.000000, -790.000000)">
            <g id="math_keypad_icon_log" transform="translate(502.000000, 790.000000)">
                <g id="icon">
                    <rect id="bounds" fill-opacity="0" fill="#FF0088" x="0" y="0" width="48" height="48"></rect>
                    <path d="M30,28.9970301 C30,28.4463856 30.4530363,28 30.9970301,28 L37.0029699,28 C37.5536144,28 38,28.4530363 38,28.9970301 L38,35.0029699 C38,35.5536144 37.5469637,36 37.0029699,36 L30.9970301,36 C30.4463856,36 30,35.5469637 30,35.0029699 L30,28.9970301 Z M32,30 L36,30 L36,34 L32,34 L32,30 Z" id="block" fill="#3B3E40"></path>
                    <path d="M12.776,29 L12.776,19.662 L10.998,19.662 L10.998,29 L12.776,29 Z M17.676,29.168 C19.916,29.168 21.26,27.544 21.26,25.612 C21.26,23.694 19.916,22.07 17.676,22.07 C15.45,22.07 14.106,23.694 14.106,25.612 C14.106,27.544 15.45,29.168 17.676,29.168 L17.676,29.168 Z M17.676,27.586 C16.57,27.586 15.954,26.676 15.954,25.612 C15.954,24.562 16.57,23.652 17.676,23.652 C18.782,23.652 19.412,24.562 19.412,25.612 C19.412,26.676 18.782,27.586 17.676,27.586 L17.676,27.586 Z M25.348,31.744 C27.014,31.744 29.002,31.114 29.002,28.538 L29.002,22.238 L27.21,22.238 L27.21,23.106 C26.664,22.42 25.936,22.07 25.124,22.07 C23.416,22.07 22.142,23.302 22.142,25.514 C22.142,27.768 23.43,28.958 25.124,28.958 C25.95,28.958 26.678,28.566 27.21,27.894 L27.21,28.58 C27.21,29.91 26.202,30.288 25.348,30.288 C24.494,30.288 23.78,30.05 23.234,29.448 L22.436,30.736 C23.29,31.478 24.186,31.744 25.348,31.744 L25.348,31.744 Z M25.684,27.376 C24.676,27.376 23.976,26.676 23.976,25.514 C23.976,24.352 24.676,23.652 25.684,23.652 C26.272,23.652 26.916,23.974 27.21,24.422 L27.21,26.606 C26.916,27.04 26.272,27.376 25.684,27.376 L25.684,27.376 Z" id="log" fill="#3B3E40"></path>
                </g>
            </g>
        </g>
        <g id="Math-Input" transform="translate(-702.000000, -1886.000000)">
            <g id="Asset-Sheet" transform="translate(200.000000, 1096.000000)">
                <mask id="mask-2" fill="white">
                    <use xlink:href="#path-1"></use>
                </mask>
                <use id="Mask" fill="#FAFAFA" xlink:href="#path-1"></use>
                <g id="math_keypad_icon_log" mask="url(#mask-2)">
                    <g transform="translate(502.000000, 790.000000)" id="icon">
                        <g>
                            <rect id="bounds" fill-opacity="0" fill="#FF0088" x="0" y="0" width="48" height="48"></rect>
                            <path d="M30,28.9970301 C30,28.4463856 30.4530363,28 30.9970301,28 L37.0029699,28 C37.5536144,28 38,28.4530363 38,28.9970301 L38,35.0029699 C38,35.5536144 37.5469637,36 37.0029699,36 L30.9970301,36 C30.4463856,36 30,35.5469637 30,35.0029699 L30,28.9970301 Z M32,30 L36,30 L36,34 L32,34 L32,30 Z" id="block" fill="#3B3E40"></path>
                            <path d="M12.776,29 L12.776,19.662 L10.998,19.662 L10.998,29 L12.776,29 Z M17.676,29.168 C19.916,29.168 21.26,27.544 21.26,25.612 C21.26,23.694 19.916,22.07 17.676,22.07 C15.45,22.07 14.106,23.694 14.106,25.612 C14.106,27.544 15.45,29.168 17.676,29.168 L17.676,29.168 Z M17.676,27.586 C16.57,27.586 15.954,26.676 15.954,25.612 C15.954,24.562 16.57,23.652 17.676,23.652 C18.782,23.652 19.412,24.562 19.412,25.612 C19.412,26.676 18.782,27.586 17.676,27.586 L17.676,27.586 Z M25.348,31.744 C27.014,31.744 29.002,31.114 29.002,28.538 L29.002,22.238 L27.21,22.238 L27.21,23.106 C26.664,22.42 25.936,22.07 25.124,22.07 C23.416,22.07 22.142,23.302 22.142,25.514 C22.142,27.768 23.43,28.958 25.124,28.958 C25.95,28.958 26.678,28.566 27.21,27.894 L27.21,28.58 C27.21,29.91 26.202,30.288 25.348,30.288 C24.494,30.288 23.78,30.05 23.234,29.448 L22.436,30.736 C23.29,31.478 24.186,31.744 25.348,31.744 L25.348,31.744 Z M25.684,27.376 C24.676,27.376 23.976,26.676 23.976,25.514 C23.976,24.352 24.676,23.652 25.684,23.652 C26.272,23.652 26.916,23.974 27.21,24.422 L27.21,26.606 C26.916,27.04 26.272,27.376 25.684,27.376 L25.684,27.376 Z" id="log" fill="#3B3E40"></path>
                        </g>
                    </g>
                </g>
            </g>
        </g>
    </g>
</svg>