<?xml version="1.0" encoding="UTF-8" standalone="no"?>
<svg width="48px" height="48px" viewBox="0 0 48 48" version="1.1" xmlns="http://www.w3.org/2000/svg" xmlns:xlink="http://www.w3.org/1999/xlink">
    <!-- Generator: sketchtool 39.1 (31720) - http://www.bohemiancoding.com/sketch -->
    <title>F3984996-FA2F-4222-A15D-18EB439D8D4D</title>
    <desc>Created with sketchtool.</desc>
    <defs>
        <rect id="path-1" x="0" y="0" width="600" height="956"></rect>
    </defs>
    <g id="Page-1" stroke="none" stroke-width="1" fill="none" fill-rule="evenodd">
        <g id="Math-Input" transform="translate(-318.000000, -1312.000000)"></g>
        <g id="Asset-Sheet" transform="translate(-118.000000, -216.000000)">
            <g id="math_keypad_icon_jump_out_exponent" transform="translate(118.000000, 216.000000)">
                <rect id="bounds" fill-opacity="0" fill="#FF0088" x="0" y="0" width="48" height="48"></rect>
                <g id="icon" stroke-width="1" transform="translate(12.000000, 12.000000)">
                    <rect id="bounds" fill-opacity="0" fill="#FF0088" x="0" y="0" width="24" height="24"></rect>
                    <path d="M23,7 L23,23" id="caret" stroke="#78C008" stroke-width="2" stroke-linecap="round" stroke-linejoin="round"></path>
                    <path d="M11,7 L19,15" id="tail" stroke="#78C008" stroke-width="2" stroke-linecap="round" stroke-linejoin="round"></path>
                    <polyline id="head" stroke="#78C008" stroke-width="2" stroke-linecap="round" stroke-linejoin="round" points="19 11 19 15 15 15"></polyline>
                    <path d="M0,0.997030139 C0,0.446385598 0.453036308,0 0.997030139,0 L7.00296986,0 C7.5536144,0 8,0.453036308 8,0.997030139 L8,7.00296986 C8,7.5536144 7.54696369,8 7.00296986,8 L0.997030139,8 C0.446385598,8 0,7.54696369 0,7.00296986 L0,0.997030139 Z M2,2 L6,2 L6,6 L2,6 L2,2 Z" id="block" fill="#888D93"></path>
                </g>
            </g>
        </g>
        <g id="Math-Input" transform="translate(-318.000000, -1312.000000)">
            <g id="Asset-Sheet" transform="translate(200.000000, 1096.000000)">
                <mask id="mask-2" fill="white">
                    <use xlink:href="#path-1"></use>
                </mask>
                <use id="Mask" fill="#FAFAFA" xlink:href="#path-1"></use>
                <g id="math_keypad_icon_jump_out_exponent" mask="url(#mask-2)">
                    <g transform="translate(118.000000, 216.000000)">
                        <rect id="bounds" fill-opacity="0" fill="#FF0088" x="0" y="0" width="48" height="48"></rect>
                        <g id="icon" stroke-width="1" fill="none" transform="translate(12.000000, 12.000000)">
                            <rect id="bounds" fill-opacity="0" fill="#FF0088" x="0" y="0" width="24" height="24"></rect>
                            <path d="M23,7 L23,23" id="caret" stroke="#78C008" stroke-width="2" stroke-linecap="round" stroke-linejoin="round"></path>
                            <path d="M11,7 L19,15" id="tail" stroke="#78C008" stroke-width="2" stroke-linecap="round" stroke-linejoin="round"></path>
                            <polyline id="head" stroke="#78C008" stroke-width="2" stroke-linecap="round" stroke-linejoin="round" points="19 11 19 15 15 15"></polyline>
                            <path d="M0,0.997030139 C0,0.446385598 0.453036308,0 0.997030139,0 L7.00296986,0 C7.5536144,0 8,0.453036308 8,0.997030139 L8,7.00296986 C8,7.5536144 7.54696369,8 7.00296986,8 L0.997030139,8 C0.446385598,8 0,7.54696369 0,7.00296986 L0,0.997030139 Z M2,2 L6,2 L6,6 L2,6 L2,2 Z" id="block" fill="#888D93"></path>
                        </g>
                    </g>
                </g>
            </g>
        </g>
    </g>
</svg>