<?xml version="1.0" encoding="UTF-8" standalone="no"?>
<svg width="48px" height="48px" viewBox="0 0 48 48" version="1.1" xmlns="http://www.w3.org/2000/svg" xmlns:xlink="http://www.w3.org/1999/xlink">
    <!-- Generator: sketchtool 39.1 (31720) - http://www.bohemiancoding.com/sketch -->
    <title>9C26E1FC-80B7-4006-985A-505DDFE1A96B</title>
    <desc>Created with sketchtool.</desc>
    <defs>
        <rect id="path-1" x="0" y="0" width="600" height="956"></rect>
    </defs>
    <g id="Page-1" stroke="none" stroke-width="1" fill="none" fill-rule="evenodd">
        <g id="Math-Input" transform="translate(-634.000000, -1448.000000)"></g>
        <g id="Asset-Sheet" transform="translate(-434.000000, -352.000000)">
            <g id="math_keypad_icon_2" transform="translate(434.000000, 352.000000)">
                <rect id="bounds" fill-opacity="0" fill="#FF0088" x="0" y="0" width="48" height="48"></rect>
                <path d="M29.45,32 L29.45,30.15 L21.275,30.15 C25.925,26.475 29.375,23.375 29.375,19.975 C29.375,16.65 26.55,15.075 23.775,15.075 C21.425,15.075 19.25,16.025 17.975,17.7 L19.25,19.025 C20.225,17.775 21.775,16.925 23.775,16.925 C25.5,16.925 27.25,17.85 27.25,19.975 C27.25,22.85 24,25.625 18,30.35 L18,32 L29.45,32 Z" id="2" fill="#3B3E40"></path>
            </g>
        </g>
        <g id="Math-Input" transform="translate(-634.000000, -1448.000000)">
            <g id="Asset-Sheet" transform="translate(200.000000, 1096.000000)">
                <mask id="mask-2" fill="white">
                    <use xlink:href="#path-1"></use>
                </mask>
                <use id="Mask" fill="#FAFAFA" xlink:href="#path-1"></use>
                <g id="math_keypad_icon_2" mask="url(#mask-2)">
                    <g transform="translate(434.000000, 352.000000)">
                        <rect id="bounds" fill-opacity="0" fill="#FF0088" x="0" y="0" width="48" height="48"></rect>
                        <path d="M29.45,32 L29.45,30.15 L21.275,30.15 C25.925,26.475 29.375,23.375 29.375,19.975 C29.375,16.65 26.55,15.075 23.775,15.075 C21.425,15.075 19.25,16.025 17.975,17.7 L19.25,19.025 C20.225,17.775 21.775,16.925 23.775,16.925 C25.5,16.925 27.25,17.85 27.25,19.975 C27.25,22.85 24,25.625 18,30.35 L18,32 L29.45,32 Z" id="2" fill="#3B3E40"></path>
                    </g>
                </g>
            </g>
        </g>
    </g>
</svg>