<?xml version="1.0" encoding="UTF-8" standalone="no"?>
<svg width="48px" height="48px" viewBox="0 0 48 48" version="1.1" xmlns="http://www.w3.org/2000/svg" xmlns:xlink="http://www.w3.org/1999/xlink">
    <!-- Generator: sketchtool 39.1 (31720) - http://www.bohemiancoding.com/sketch -->
    <title>4D478509-71CF-4E1D-80CA-2AD62214FC3C</title>
    <desc>Created with sketchtool.</desc>
    <defs>
        <rect id="path-1" x="0" y="0" width="600" height="956"></rect>
    </defs>
    <g id="Page-1" stroke="none" stroke-width="1" fill="none" fill-rule="evenodd">
        <g id="Math-Input" transform="translate(-702.000000, -1380.000000)"></g>
        <g id="Asset-Sheet" transform="translate(-502.000000, -284.000000)">
            <g id="math_keypad_icon_6" transform="translate(502.000000, 284.000000)">
                <rect id="bounds" fill-opacity="0" fill="#FF0088" x="0" y="0" width="48" height="48"></rect>
                <path d="M24.3125,32.3 C27.9625,32.3 30.1625,29.75 30.1625,26.85 C30.1625,23.3 27.7125,21.525 24.7125,21.525 C22.5625,21.525 20.7125,22.975 19.9875,24.125 C19.9625,23.9 19.9625,23.7 19.9625,23.475 C19.9625,20.2 21.4375,16.925 24.6625,16.925 C26.4125,16.925 27.3875,17.625 28.2375,18.625 L29.2875,17.075 C28.2625,15.9 26.8125,15.075 24.6625,15.075 C19.9875,15.075 17.8875,19.175 17.8875,23.7 C17.8875,28.225 19.6625,32.3 24.3125,32.3 L24.3125,32.3 Z M24.2375,30.45 C21.3375,30.45 20.2375,27.9 20.0375,25.825 C20.9625,24.35 22.5625,23.325 24.2125,23.325 C26.3625,23.325 28.0625,24.475 28.0625,26.925 C28.0625,28.525 26.8125,30.45 24.2375,30.45 L24.2375,30.45 Z" id="6" fill="#3B3E40"></path>
            </g>
        </g>
        <g id="Math-Input" transform="translate(-702.000000, -1380.000000)">
            <g id="Asset-Sheet" transform="translate(200.000000, 1096.000000)">
                <mask id="mask-2" fill="white">
                    <use xlink:href="#path-1"></use>
                </mask>
                <use id="Mask" fill="#FAFAFA" xlink:href="#path-1"></use>
                <g id="math_keypad_icon_6" mask="url(#mask-2)">
                    <g transform="translate(502.000000, 284.000000)">
                        <rect id="bounds" fill-opacity="0" fill="#FF0088" x="0" y="0" width="48" height="48"></rect>
                        <path d="M24.3125,32.3 C27.9625,32.3 30.1625,29.75 30.1625,26.85 C30.1625,23.3 27.7125,21.525 24.7125,21.525 C22.5625,21.525 20.7125,22.975 19.9875,24.125 C19.9625,23.9 19.9625,23.7 19.9625,23.475 C19.9625,20.2 21.4375,16.925 24.6625,16.925 C26.4125,16.925 27.3875,17.625 28.2375,18.625 L29.2875,17.075 C28.2625,15.9 26.8125,15.075 24.6625,15.075 C19.9875,15.075 17.8875,19.175 17.8875,23.7 C17.8875,28.225 19.6625,32.3 24.3125,32.3 L24.3125,32.3 Z M24.2375,30.45 C21.3375,30.45 20.2375,27.9 20.0375,25.825 C20.9625,24.35 22.5625,23.325 24.2125,23.325 C26.3625,23.325 28.0625,24.475 28.0625,26.925 C28.0625,28.525 26.8125,30.45 24.2375,30.45 L24.2375,30.45 Z" id="6" fill="#3B3E40"></path>
                    </g>
                </g>
            </g>
        </g>
    </g>
</svg>