<?xml version="1.0" encoding="UTF-8" standalone="no"?>
<svg width="48px" height="48px" viewBox="0 0 48 48" version="1.1" xmlns="http://www.w3.org/2000/svg" xmlns:xlink="http://www.w3.org/1999/xlink">
    <!-- Generator: sketchtool 39.1 (31720) - http://www.bohemiancoding.com/sketch -->
    <title>35D17327-FEFF-4D79-9498-8F28FE7F18A1</title>
    <desc>Created with sketchtool.</desc>
    <defs>
        <rect id="path-1" x="0" y="0" width="600" height="956"></rect>
    </defs>
    <g id="Page-1" stroke="none" stroke-width="1" fill="none" fill-rule="evenodd">
        <g id="Math-Input" transform="translate(-566.000000, -1886.000000)"></g>
        <g id="Asset-Sheet" transform="translate(-366.000000, -790.000000)">
            <g id="math_keypad_icon_log_10" transform="translate(366.000000, 790.000000)">
                <g id="icon">
                    <rect id="bounds" fill-opacity="0" fill="#FF0088" x="0" y="0" width="48" height="48"></rect>
                    <path d="M16.776,29 L16.776,19.662 L14.998,19.662 L14.998,29 L16.776,29 Z M21.676,29.168 C23.916,29.168 25.26,27.544 25.26,25.612 C25.26,23.694 23.916,22.07 21.676,22.07 C19.45,22.07 18.106,23.694 18.106,25.612 C18.106,27.544 19.45,29.168 21.676,29.168 L21.676,29.168 Z M21.676,27.586 C20.57,27.586 19.954,26.676 19.954,25.612 C19.954,24.562 20.57,23.652 21.676,23.652 C22.782,23.652 23.412,24.562 23.412,25.612 C23.412,26.676 22.782,27.586 21.676,27.586 L21.676,27.586 Z M29.348,31.744 C31.014,31.744 33.002,31.114 33.002,28.538 L33.002,22.238 L31.21,22.238 L31.21,23.106 C30.664,22.42 29.936,22.07 29.124,22.07 C27.416,22.07 26.142,23.302 26.142,25.514 C26.142,27.768 27.43,28.958 29.124,28.958 C29.95,28.958 30.678,28.566 31.21,27.894 L31.21,28.58 C31.21,29.91 30.202,30.288 29.348,30.288 C28.494,30.288 27.78,30.05 27.234,29.448 L26.436,30.736 C27.29,31.478 28.186,31.744 29.348,31.744 L29.348,31.744 Z M29.684,27.376 C28.676,27.376 27.976,26.676 27.976,25.514 C27.976,24.352 28.676,23.652 29.684,23.652 C30.272,23.652 30.916,23.974 31.21,24.422 L31.21,26.606 C30.916,27.04 30.272,27.376 29.684,27.376 L29.684,27.376 Z" id="log" fill="#3B3E40"></path>
                </g>
            </g>
        </g>
        <g id="Math-Input" transform="translate(-566.000000, -1886.000000)">
            <g id="Asset-Sheet" transform="translate(200.000000, 1096.000000)">
                <mask id="mask-2" fill="white">
                    <use xlink:href="#path-1"></use>
                </mask>
                <use id="Mask" fill="#FAFAFA" xlink:href="#path-1"></use>
                <g id="math_keypad_icon_log_10" mask="url(#mask-2)">
                    <g transform="translate(366.000000, 790.000000)" id="icon">
                        <g>
                            <rect id="bounds" fill-opacity="0" fill="#FF0088" x="0" y="0" width="48" height="48"></rect>
                            <path d="M16.776,29 L16.776,19.662 L14.998,19.662 L14.998,29 L16.776,29 Z M21.676,29.168 C23.916,29.168 25.26,27.544 25.26,25.612 C25.26,23.694 23.916,22.07 21.676,22.07 C19.45,22.07 18.106,23.694 18.106,25.612 C18.106,27.544 19.45,29.168 21.676,29.168 L21.676,29.168 Z M21.676,27.586 C20.57,27.586 19.954,26.676 19.954,25.612 C19.954,24.562 20.57,23.652 21.676,23.652 C22.782,23.652 23.412,24.562 23.412,25.612 C23.412,26.676 22.782,27.586 21.676,27.586 L21.676,27.586 Z M29.348,31.744 C31.014,31.744 33.002,31.114 33.002,28.538 L33.002,22.238 L31.21,22.238 L31.21,23.106 C30.664,22.42 29.936,22.07 29.124,22.07 C27.416,22.07 26.142,23.302 26.142,25.514 C26.142,27.768 27.43,28.958 29.124,28.958 C29.95,28.958 30.678,28.566 31.21,27.894 L31.21,28.58 C31.21,29.91 30.202,30.288 29.348,30.288 C28.494,30.288 27.78,30.05 27.234,29.448 L26.436,30.736 C27.29,31.478 28.186,31.744 29.348,31.744 L29.348,31.744 Z M29.684,27.376 C28.676,27.376 27.976,26.676 27.976,25.514 C27.976,24.352 28.676,23.652 29.684,23.652 C30.272,23.652 30.916,23.974 31.21,24.422 L31.21,26.606 C30.916,27.04 30.272,27.376 29.684,27.376 L29.684,27.376 Z" id="log" fill="#3B3E40"></path>
                        </g>
                    </g>
                </g>
            </g>
        </g>
    </g>
</svg>