<?xml version="1.0" encoding="utf-8"?>
<!-- Generator: Adobe Illustrator 26.0.1, SVG Export Plug-In . SVG Version: 6.00 Build 0)  -->
<svg version="1.1" id="Layer_1" xmlns="http://www.w3.org/2000/svg" xmlns:xlink="http://www.w3.org/1999/xlink" x="0px" y="0px"
	 viewBox="0 0 196.8 207.7" style="enable-background:new 0 0 196.8 207.7;" xml:space="preserve">
<style type="text/css">
	.st0{fill:#00509F;}
	.st1{fill:#FFFFFF;}
	.st2{opacity:0.17;}
	.st3{fill:#7670B3;}
	.st4{font-family:'HiraKakuStdN-W8-83pv-RKSJ-H';}
	.st5{font-size:24px;}
	.st6{letter-spacing:-1;}
</style>
<g id="Layer_6">
	<path class="st0" d="M196.8,96.6c-28-16.6-35.9-34.3-29.6-68.6c-31.8,8.8-49.4,1-68.7-28C78.9,29,61.3,36.8,29.7,27.9
		c6.1,34.4-1.8,52-29.7,68.7c27.9,22.3,35.8,39.9,28,70.4c33.3-5,50.9,2.9,70.5,29.6c6.2-8.6,12.3-15.2,18.7-20.1l30.3,31.2
		l-2.9-41.8c8.1-0.7,16.2-0.3,24.2,1C160.9,136.5,168.8,118.9,196.8,96.6z"/>
	<path class="st1" d="M178.8,96.9c-22.9-13.6-29.3-28-24.2-56c-25.9,7.2-40.3,0.8-56.1-22.9c-16,23.6-30.4,30.1-56.2,22.8
		c5,28.1-1.5,42.5-24.2,56.1c22.8,18.2,29.2,32.6,22.9,57.5c27.2-4,41.6,2.4,57.6,24.2c5-6.9,9.9-12.3,15.1-16.3l22.2,22.8
		l-2.1-31.3c6.5-1,13.7-0.7,22.3,0.5C149.5,129.5,155.9,115.1,178.8,96.9z"/>
	<g class="st2">
		<path class="st3" d="M146,145.9c-5.6-2-11.7-3.9-17.5-2.5s-10.9,7.7-8.7,13.2c-2.2-6.3-7.8-11.9-14.5-12.2s-13.3,6.3-11.5,12.7
			c-4.7-8.2-9.9-16.7-18.1-21.3s-20.3-3.7-25.2,4.4c0-10.2-0.2-20.8-5-29.8S29.9,95.3,20.6,99c20.6,17.2,26.4,31.4,20.3,55.3
			c27.2-4,41.6,2.4,57.6,24.2c5-6.9,9.9-12.3,15.1-16.3l22.2,22.8l-2.1-31.3c6.5-1,13.7-0.7,22.3,0.5c-6.3-24-0.4-38.2,20.5-55.5
			c-9.4,0.4-18.5,3.9-25.2,10.5C141.9,118.6,139,134.6,146,145.9z"/>
	</g>
	<g class="st2">
		<path class="st3" d="M19.9,98.5l0.2,0.2L20,98.1C20,98.2,20,98.3,19.9,98.5z"/>
	</g>
	<text transform="matrix(1 0 0 1 49.4065 95.1348)" class="st0 st4 st5">GRE</text>
	<text transform="matrix(1 0 0 1 106.8165 95.1348)" class="st0 st4 st5 st6">A</text>
	<text transform="matrix(1 0 0 1 125.7765 95.1348)" class="st0 st4 st5">T </text>
	<text transform="matrix(1 0 0 1 72.4665 123.9348)" class="st0 st4 st5">JOB</text>
</g>
</svg>
