<svg xmlns="http://www.w3.org/2000/svg" viewBox="0 0 3489.6 511.89"><defs><style>.cls-1{fill:#14bf96;}</style></defs><g id="Layer_2" data-name="Layer 2"><g id="ruler_face"><path class="cls-1" d="M3456.63,511.89H33a33,33,0,0,1-33-33V33A33,33,0,0,1,33,0H3456.63a33,33,0,0,1,33,33v446A33,33,0,0,1,3456.63,511.89Z"/><path class="cls-1" d="M3474.78,490.8H51.11a33,33,0,0,1-33-33V11.88a33.07,33.07,0,0,1,1.24-9A33,33,0,0,0,0,33v446a33,33,0,0,0,33,33H3456.63a33,33,0,0,0,31.73-24A32.93,32.93,0,0,1,3474.78,490.8Z"/><path d="M103.05,16.86c.4,1.84.72,3.68,1.08,5.53l1,5.53c.63,3.69,1.18,7.37,1.7,11.06-.08,7.38,0,14.75,0,22.13V171.74c-1.12,7.38-2.21,14.75-3.69,22.13-1.48-7.38-2.56-14.75-3.68-22.13V61.11c0-7.38,0-14.75,0-22.13.52-3.69,1.07-7.37,1.7-11.06l1-5.53C102.34,20.54,102.66,18.7,103.05,16.86Z"/><path d="M135.89,17.47a145.25,145.25,0,0,1,2.89,20.13c.54,6.71.79,13.42.79,20.13s-.24,13.42-.78,20.13A143.78,143.78,0,0,1,135.89,98,143.78,143.78,0,0,1,133,77.86c-.54-6.71-.79-13.42-.79-20.13s.26-13.42.8-20.13A145.25,145.25,0,0,1,135.89,17.47Z"/><path d="M168.72,17.47a145.25,145.25,0,0,1,2.89,20.13q.81,10.07.8,20.13t-.79,20.13A142.32,142.32,0,0,1,168.72,98a145.28,145.28,0,0,1-2.9-20.13Q165,67.8,165,57.73c0-6.71.25-13.42.79-20.13A146.77,146.77,0,0,1,168.72,17.47Z"/><path d="M201.56,17.47a145.25,145.25,0,0,1,2.89,20.13c.54,6.71.79,13.42.79,20.13s-.24,13.42-.78,20.13A143.78,143.78,0,0,1,201.56,98a143.78,143.78,0,0,1-2.9-20.13c-.54-6.71-.79-13.42-.79-20.13s.26-13.42.8-20.13A145.25,145.25,0,0,1,201.56,17.47Z"/><path d="M234.39,17.47a145.25,145.25,0,0,1,2.89,20.13q.81,10.07.8,20.13t-.79,20.13A142.32,142.32,0,0,1,234.39,98a145.28,145.28,0,0,1-2.9-20.13q-.81-10.06-.78-20.13c0-6.71.25-13.42.79-20.13A146.77,146.77,0,0,1,234.39,17.47Z"/><path d="M267.23,17.47c.39,1.2.71,2.39,1.07,3.59l.95,3.59c.63,2.4,1.18,4.79,1.7,7.19-.07,4.79,0,9.57,0,14.36V118c-1.13,4.79-2.21,9.58-3.69,14.37-1.48-4.79-2.57-9.58-3.69-14.37V46.2c0-4.79,0-9.57,0-14.36.52-2.4,1.08-4.79,1.7-7.19l.95-3.59C266.51,19.86,266.83,18.67,267.23,17.47Z"/><path d="M300.06,17.47A145.25,145.25,0,0,1,303,37.6q.81,10.07.8,20.13T303,77.86A142.32,142.32,0,0,1,300.06,98a145.28,145.28,0,0,1-2.9-20.13q-.81-10.06-.78-20.13c0-6.71.25-13.42.79-20.13A146.77,146.77,0,0,1,300.06,17.47Z"/><path d="M332.9,17.47a145.25,145.25,0,0,1,2.89,20.13c.54,6.71.79,13.42.79,20.13s-.24,13.42-.78,20.13A143.78,143.78,0,0,1,332.9,98,143.78,143.78,0,0,1,330,77.86c-.54-6.71-.79-13.42-.79-20.13s.26-13.42.8-20.13A145.25,145.25,0,0,1,332.9,17.47Z"/><path d="M365.73,17.47a145.25,145.25,0,0,1,2.89,20.13q.81,10.07.8,20.13t-.79,20.13A143.78,143.78,0,0,1,365.73,98a145.28,145.28,0,0,1-2.9-20.13q-.81-10.06-.78-20.13c0-6.71.25-13.42.79-20.13A146.77,146.77,0,0,1,365.73,17.47Z"/><path d="M398.57,17.47a145.25,145.25,0,0,1,2.89,20.13c.54,6.71.79,13.42.79,20.13s-.24,13.42-.78,20.13A143.78,143.78,0,0,1,398.57,98a143.78,143.78,0,0,1-2.9-20.13c-.54-6.71-.79-13.42-.79-20.13s.26-13.42.8-20.13A145.25,145.25,0,0,1,398.57,17.47Z"/><path d="M431.4,17.47c.4,1.84.72,3.68,1.08,5.51l.95,5.52q.93,5.51,1.7,11c-.08,7.35,0,14.7,0,22V171.82c-1.12,7.35-2.21,14.7-3.69,22.05-1.48-7.35-2.56-14.7-3.68-22.05V61.57c0-7.35,0-14.7,0-22,.52-3.67,1.07-7.35,1.7-11l.95-5.52C430.69,21.15,431,19.31,431.4,17.47Z"/><path d="M759.75,16.86c.4,1.84.72,3.68,1.08,5.53l.95,5.53q.93,5.53,1.7,11.06c-.08,7.38,0,14.75,0,22.13V171.74c-1.12,7.38-2.21,14.75-3.69,22.13-1.48-7.38-2.56-14.75-3.68-22.13V61.11c0-7.38,0-14.75,0-22.13.52-3.69,1.07-7.37,1.7-11.06l.95-5.53C759,20.54,759.36,18.7,759.75,16.86Z"/><path d="M726.92,17.47a145.25,145.25,0,0,1,2.89,20.13c.54,6.71.79,13.42.79,20.13s-.24,13.42-.78,20.13A145.28,145.28,0,0,1,726.92,98,143.78,143.78,0,0,1,724,77.86c-.54-6.71-.79-13.42-.79-20.13s.26-13.42.8-20.13A145.25,145.25,0,0,1,726.92,17.47Z"/><path d="M694.08,17.47A145.25,145.25,0,0,1,697,37.6q.81,10.07.8,20.13T697,77.86A143.78,143.78,0,0,1,694.08,98a145.28,145.28,0,0,1-2.9-20.13q-.81-10.06-.78-20.13c0-6.71.25-13.42.79-20.13A146.77,146.77,0,0,1,694.08,17.47Z"/><path d="M661.25,17.47a145.25,145.25,0,0,1,2.89,20.13c.54,6.71.79,13.42.79,20.13s-.24,13.42-.78,20.13A145.28,145.28,0,0,1,661.25,98a143.78,143.78,0,0,1-2.9-20.13c-.54-6.71-.79-13.42-.79-20.13s.26-13.42.8-20.13A145.25,145.25,0,0,1,661.25,17.47Z"/><path d="M628.41,17.47A145.25,145.25,0,0,1,631.3,37.6q.81,10.07.8,20.13t-.79,20.13A143.78,143.78,0,0,1,628.41,98a145.28,145.28,0,0,1-2.9-20.13q-.81-10.06-.78-20.13c0-6.71.25-13.42.79-20.13A146.77,146.77,0,0,1,628.41,17.47Z"/><path d="M595.58,17.47c.39,1.2.71,2.39,1.07,3.59l1,3.59c.63,2.4,1.18,4.79,1.7,7.19-.07,4.79,0,9.57,0,14.36V118c-1.13,4.79-2.21,9.58-3.69,14.37-1.48-4.79-2.57-9.58-3.69-14.37V46.2c0-4.79,0-9.57,0-14.36.52-2.4,1.08-4.79,1.7-7.19l1-3.59C594.86,19.86,595.18,18.67,595.58,17.47Z"/><path d="M562.74,17.47a145.25,145.25,0,0,1,2.89,20.13q.81,10.07.8,20.13t-.79,20.13A143.78,143.78,0,0,1,562.74,98a145.28,145.28,0,0,1-2.9-20.13q-.81-10.06-.78-20.13c0-6.71.25-13.42.79-20.13A146.77,146.77,0,0,1,562.74,17.47Z"/><path d="M529.91,17.47A145.25,145.25,0,0,1,532.8,37.6c.54,6.71.79,13.42.79,20.13s-.24,13.42-.78,20.13A145.28,145.28,0,0,1,529.91,98,143.78,143.78,0,0,1,527,77.86c-.54-6.71-.79-13.42-.79-20.13s.26-13.42.8-20.13A145.25,145.25,0,0,1,529.91,17.47Z"/><path d="M497.07,17.47A145.25,145.25,0,0,1,500,37.6q.81,10.07.8,20.13T500,77.86A143.78,143.78,0,0,1,497.07,98a145.28,145.28,0,0,1-2.9-20.13q-.81-10.06-.78-20.13c0-6.71.25-13.42.79-20.13A146.77,146.77,0,0,1,497.07,17.47Z"/><path d="M464.24,17.47a145.25,145.25,0,0,1,2.89,20.13c.54,6.71.79,13.42.79,20.13s-.24,13.42-.78,20.13A145.28,145.28,0,0,1,464.24,98a143.78,143.78,0,0,1-2.9-20.13c-.54-6.71-.79-13.42-.79-20.13s.26-13.42.8-20.13A145.25,145.25,0,0,1,464.24,17.47Z"/><path d="M1416.45,16.86c.4,1.84.72,3.68,1.08,5.53l1,5.53q.93,5.53,1.7,11.06c-.08,7.38,0,14.75,0,22.13V171.74c-1.12,7.38-2.21,14.75-3.69,22.13-1.48-7.38-2.56-14.75-3.69-22.13V61.11c0-7.38,0-14.75,0-22.13.52-3.69,1.07-7.37,1.7-11.06l1-5.53C1415.74,20.54,1416.06,18.7,1416.45,16.86Z"/><path d="M1383.62,17.47a146.77,146.77,0,0,1,2.89,20.13c.54,6.71.79,13.42.79,20.13s-.24,13.42-.78,20.13a145.28,145.28,0,0,1-2.9,20.13,143.78,143.78,0,0,1-2.9-20.13q-.81-10.06-.79-20.13t.8-20.13A145.25,145.25,0,0,1,1383.62,17.47Z"/><path d="M1350.78,17.47a145.25,145.25,0,0,1,2.89,20.13c.54,6.71.79,13.42.8,20.13s-.25,13.42-.79,20.13a143.78,143.78,0,0,1-2.9,20.13,145.28,145.28,0,0,1-2.9-20.13q-.81-10.06-.78-20.13c0-6.71.25-13.42.79-20.13A145.25,145.25,0,0,1,1350.78,17.47Z"/><path d="M1318,17.47a146.77,146.77,0,0,1,2.89,20.13c.54,6.71.79,13.42.79,20.13s-.24,13.42-.78,20.13A145.28,145.28,0,0,1,1318,98a143.78,143.78,0,0,1-2.9-20.13q-.81-10.06-.79-20.13t.8-20.13A145.25,145.25,0,0,1,1318,17.47Z"/><path d="M1285.11,17.47A145.25,145.25,0,0,1,1288,37.6c.54,6.71.79,13.42.8,20.13s-.25,13.42-.79,20.13a143.78,143.78,0,0,1-2.9,20.13,145.28,145.28,0,0,1-2.9-20.13q-.81-10.06-.78-20.13c0-6.71.25-13.42.79-20.13A145.25,145.25,0,0,1,1285.11,17.47Z"/><path d="M1252.28,17.47c.39,1.2.71,2.39,1.07,3.59l1,3.59c.63,2.4,1.18,4.79,1.7,7.19-.07,4.79,0,9.57,0,14.36V118c-1.13,4.79-2.21,9.58-3.69,14.37-1.48-4.79-2.57-9.58-3.69-14.37V46.2c0-4.79,0-9.57,0-14.36.52-2.4,1.08-4.79,1.7-7.19l1-3.59C1251.56,19.86,1251.88,18.67,1252.28,17.47Z"/><path d="M1219.44,17.47a145.25,145.25,0,0,1,2.89,20.13c.54,6.71.79,13.42.8,20.13s-.25,13.42-.79,20.13a143.78,143.78,0,0,1-2.9,20.13,145.28,145.28,0,0,1-2.9-20.13q-.81-10.06-.78-20.13c0-6.71.25-13.42.79-20.13A145.25,145.25,0,0,1,1219.44,17.47Z"/><path d="M1186.61,17.47a146.77,146.77,0,0,1,2.89,20.13c.54,6.71.79,13.42.79,20.13s-.24,13.42-.78,20.13a145.28,145.28,0,0,1-2.9,20.13,143.78,143.78,0,0,1-2.9-20.13q-.81-10.06-.79-20.13t.8-20.13A145.25,145.25,0,0,1,1186.61,17.47Z"/><path d="M1153.77,17.47a145.25,145.25,0,0,1,2.89,20.13c.54,6.71.79,13.42.8,20.13s-.25,13.42-.79,20.13a143.78,143.78,0,0,1-2.9,20.13,145.28,145.28,0,0,1-2.9-20.13q-.81-10.06-.78-20.13c0-6.71.25-13.42.79-20.13A145.25,145.25,0,0,1,1153.77,17.47Z"/><path d="M1120.94,17.47a146.77,146.77,0,0,1,2.89,20.13c.54,6.71.79,13.42.79,20.13s-.24,13.42-.78,20.13a145.28,145.28,0,0,1-2.9,20.13,143.78,143.78,0,0,1-2.9-20.13q-.81-10.06-.79-20.13t.8-20.13A145.25,145.25,0,0,1,1120.94,17.47Z"/><path d="M1088.1,17.47c.4,1.84.72,3.68,1.08,5.51l1,5.52q.93,5.51,1.7,11c-.08,7.35,0,14.7,0,22V171.82c-1.12,7.35-2.21,14.7-3.69,22.05-1.48-7.35-2.56-14.7-3.69-22.05V61.57c0-7.35,0-14.7,0-22,.52-3.67,1.07-7.35,1.7-11l1-5.52C1087.39,21.15,1087.71,19.31,1088.1,17.47Z"/><path d="M792.59,17.47a145.25,145.25,0,0,1,2.89,20.13c.54,6.71.79,13.42.79,20.13s-.24,13.42-.78,20.13A145.28,145.28,0,0,1,792.59,98a143.78,143.78,0,0,1-2.9-20.13c-.54-6.71-.79-13.42-.79-20.13s.26-13.42.8-20.13A145.25,145.25,0,0,1,792.59,17.47Z"/><path d="M825.42,17.47a145.25,145.25,0,0,1,2.89,20.13q.81,10.07.8,20.13t-.79,20.13A143.78,143.78,0,0,1,825.42,98a145.28,145.28,0,0,1-2.9-20.13q-.81-10.06-.78-20.13c0-6.71.25-13.42.79-20.13A146.77,146.77,0,0,1,825.42,17.47Z"/><path d="M858.26,17.47a145.25,145.25,0,0,1,2.89,20.13c.54,6.71.79,13.42.79,20.13s-.24,13.42-.78,20.13A145.28,145.28,0,0,1,858.26,98a143.78,143.78,0,0,1-2.9-20.13c-.54-6.71-.79-13.42-.79-20.13s.26-13.42.8-20.13A145.25,145.25,0,0,1,858.26,17.47Z"/><path d="M891.09,17.47A145.25,145.25,0,0,1,894,37.6c.54,6.71.79,13.42.8,20.13s-.25,13.42-.79,20.13A143.78,143.78,0,0,1,891.09,98a145.28,145.28,0,0,1-2.9-20.13q-.81-10.06-.78-20.13c0-6.71.25-13.42.79-20.13A146.77,146.77,0,0,1,891.09,17.47Z"/><path d="M923.93,17.47c.39,1.2.71,2.39,1.07,3.59l1,3.59c.63,2.4,1.18,4.79,1.7,7.19-.07,4.79,0,9.57,0,14.36V118c-1.13,4.79-2.21,9.58-3.69,14.37-1.48-4.79-2.57-9.58-3.69-14.37V46.2c0-4.79,0-9.57,0-14.36.52-2.4,1.08-4.79,1.7-7.19l1-3.59C923.21,19.86,923.53,18.67,923.93,17.47Z"/><path d="M956.76,17.47a145.25,145.25,0,0,1,2.89,20.13c.54,6.71.79,13.42.8,20.13s-.25,13.42-.79,20.13A143.78,143.78,0,0,1,956.76,98a145.28,145.28,0,0,1-2.9-20.13q-.81-10.06-.78-20.13c0-6.71.25-13.42.79-20.13A146.77,146.77,0,0,1,956.76,17.47Z"/><path d="M989.6,17.47a145.25,145.25,0,0,1,2.89,20.13c.54,6.71.79,13.42.79,20.13s-.24,13.42-.78,20.13A145.28,145.28,0,0,1,989.6,98a143.78,143.78,0,0,1-2.9-20.13c-.54-6.71-.79-13.42-.79-20.13s.26-13.42.8-20.13A145.25,145.25,0,0,1,989.6,17.47Z"/><path d="M1022.43,17.47a145.25,145.25,0,0,1,2.89,20.13c.54,6.71.79,13.42.8,20.13s-.25,13.42-.79,20.13a143.78,143.78,0,0,1-2.9,20.13,145.28,145.28,0,0,1-2.9-20.13q-.81-10.06-.78-20.13c0-6.71.25-13.42.79-20.13A145.25,145.25,0,0,1,1022.43,17.47Z"/><path d="M1055.27,17.47a145.25,145.25,0,0,1,2.89,20.13c.54,6.71.79,13.42.79,20.13s-.24,13.42-.78,20.13a145.28,145.28,0,0,1-2.9,20.13,143.78,143.78,0,0,1-2.9-20.13q-.81-10.06-.79-20.13c0-6.71.26-13.42.8-20.13A145.25,145.25,0,0,1,1055.27,17.47Z"/><path d="M2729.85,16.86c.4,1.84.72,3.68,1.08,5.53l1,5.53q.93,5.53,1.7,11.06c-.08,7.38,0,14.75,0,22.13V171.74c-1.12,7.38-2.21,14.75-3.69,22.13-1.48-7.38-2.57-14.75-3.69-22.13V61.11c0-7.38,0-14.75,0-22.13.52-3.69,1.07-7.37,1.69-11.06l1-5.53C2729.14,20.54,2729.45,18.7,2729.85,16.86Z"/><path d="M2697,17.47a146.77,146.77,0,0,1,2.89,20.13c.54,6.71.79,13.42.79,20.13s-.24,13.42-.78,20.13A145.28,145.28,0,0,1,2697,98a142.32,142.32,0,0,1-2.9-20.13q-.81-10.06-.79-20.13t.8-20.13A145.25,145.25,0,0,1,2697,17.47Z"/><path d="M2664.18,17.47a145.25,145.25,0,0,1,2.89,20.13c.54,6.71.79,13.42.8,20.13s-.25,13.42-.79,20.13a143.78,143.78,0,0,1-2.9,20.13,143.78,143.78,0,0,1-2.9-20.13c-.54-6.71-.79-13.42-.79-20.13s.26-13.42.8-20.13A145.25,145.25,0,0,1,2664.18,17.47Z"/><path d="M2631.35,17.47a146.77,146.77,0,0,1,2.89,20.13c.54,6.71.79,13.42.79,20.13s-.24,13.42-.78,20.13a145.28,145.28,0,0,1-2.9,20.13,142.32,142.32,0,0,1-2.9-20.13q-.81-10.06-.79-20.13t.8-20.13A145.25,145.25,0,0,1,2631.35,17.47Z"/><path d="M2598.51,17.47a145.25,145.25,0,0,1,2.89,20.13c.54,6.71.79,13.42.8,20.13s-.25,13.42-.79,20.13a143.78,143.78,0,0,1-2.9,20.13,143.78,143.78,0,0,1-2.9-20.13c-.54-6.71-.79-13.42-.79-20.13s.26-13.42.8-20.13A145.25,145.25,0,0,1,2598.51,17.47Z"/><path d="M2565.68,17.47c.39,1.2.71,2.39,1.07,3.59l.95,3.59c.63,2.4,1.18,4.79,1.7,7.19-.07,4.79,0,9.57,0,14.36V118c-1.12,4.79-2.2,9.58-3.68,14.37-1.48-4.79-2.57-9.58-3.69-14.37V46.2c0-4.79,0-9.57,0-14.36.52-2.4,1.07-4.79,1.7-7.19l.95-3.59C2565,19.86,2565.28,18.67,2565.68,17.47Z"/><path d="M2532.84,17.47a145.25,145.25,0,0,1,2.89,20.13c.54,6.71.79,13.42.8,20.13s-.25,13.42-.79,20.13a143.78,143.78,0,0,1-2.9,20.13,143.78,143.78,0,0,1-2.9-20.13c-.54-6.71-.79-13.42-.79-20.13s.26-13.42.8-20.13A145.25,145.25,0,0,1,2532.84,17.47Z"/><path d="M2500,17.47a146.77,146.77,0,0,1,2.89,20.13c.54,6.71.79,13.42.79,20.13s-.24,13.42-.78,20.13A145.28,145.28,0,0,1,2500,98a142.32,142.32,0,0,1-2.9-20.13q-.81-10.06-.79-20.13t.8-20.13A145.25,145.25,0,0,1,2500,17.47Z"/><path d="M2467.17,17.47a145.25,145.25,0,0,1,2.89,20.13c.54,6.71.79,13.42.8,20.13s-.25,13.42-.79,20.13a143.78,143.78,0,0,1-2.9,20.13,143.78,143.78,0,0,1-2.9-20.13c-.54-6.71-.79-13.42-.79-20.13s.26-13.42.8-20.13A145.25,145.25,0,0,1,2467.17,17.47Z"/><path d="M2434.34,17.47a146.77,146.77,0,0,1,2.89,20.13c.54,6.71.79,13.42.79,20.13s-.24,13.42-.78,20.13a145.28,145.28,0,0,1-2.9,20.13,142.32,142.32,0,0,1-2.9-20.13q-.81-10.06-.79-20.13t.8-20.13A145.25,145.25,0,0,1,2434.34,17.47Z"/><path d="M2401.5,17.47c.4,1.84.72,3.68,1.08,5.51l1,5.52q.93,5.51,1.7,11c-.08,7.35,0,14.7,0,22V171.82c-1.12,7.35-2.21,14.7-3.69,22.05-1.48-7.35-2.57-14.7-3.69-22.05V61.57c0-7.35,0-14.7,0-22,.52-3.67,1.07-7.35,1.69-11l1-5.52C2400.79,21.15,2401.11,19.31,2401.5,17.47Z"/><path d="M2073.15,16.86c.4,1.84.72,3.68,1.08,5.53l.95,5.53q.93,5.53,1.7,11.06c-.08,7.38,0,14.75,0,22.13V171.74c-1.12,7.38-2.21,14.75-3.69,22.13-1.48-7.38-2.56-14.75-3.69-22.13V61.11c0-7.38,0-14.75,0-22.13.52-3.69,1.07-7.37,1.7-11.06l.95-5.53C2072.44,20.54,2072.76,18.7,2073.15,16.86Z"/><path d="M2106,17.47a146.77,146.77,0,0,1,2.89,20.13c.54,6.71.79,13.42.79,20.13s-.24,13.42-.78,20.13A145.28,145.28,0,0,1,2106,98a142.32,142.32,0,0,1-2.9-20.13q-.81-10.06-.79-20.13t.8-20.13A145.25,145.25,0,0,1,2106,17.47Z"/><path d="M2138.82,17.47a145.25,145.25,0,0,1,2.89,20.13c.54,6.71.79,13.42.8,20.13s-.25,13.42-.79,20.13a143.78,143.78,0,0,1-2.9,20.13,143.78,143.78,0,0,1-2.9-20.13c-.54-6.71-.79-13.42-.79-20.13s.26-13.42.8-20.13A145.25,145.25,0,0,1,2138.82,17.47Z"/><path d="M2171.66,17.47a146.77,146.77,0,0,1,2.89,20.13c.54,6.71.79,13.42.79,20.13s-.24,13.42-.78,20.13a145.28,145.28,0,0,1-2.9,20.13,142.32,142.32,0,0,1-2.9-20.13Q2168,67.8,2168,57.73t.8-20.13A145.25,145.25,0,0,1,2171.66,17.47Z"/><path d="M2204.49,17.47a145.25,145.25,0,0,1,2.89,20.13c.54,6.71.79,13.42.8,20.13s-.25,13.42-.79,20.13a143.78,143.78,0,0,1-2.9,20.13,143.78,143.78,0,0,1-2.9-20.13c-.54-6.71-.79-13.42-.79-20.13s.26-13.42.8-20.13A145.25,145.25,0,0,1,2204.49,17.47Z"/><path d="M2237.33,17.47c.39,1.2.71,2.39,1.07,3.59l.95,3.59c.63,2.4,1.18,4.79,1.7,7.19-.07,4.79,0,9.57,0,14.36V118c-1.12,4.79-2.2,9.58-3.68,14.37-1.48-4.79-2.57-9.58-3.69-14.37V46.2c0-4.79,0-9.57,0-14.36.52-2.4,1.07-4.79,1.7-7.19l.95-3.59C2236.61,19.86,2236.93,18.67,2237.33,17.47Z"/><path d="M2270.16,17.47a145.25,145.25,0,0,1,2.89,20.13c.54,6.71.79,13.42.8,20.13s-.25,13.42-.79,20.13a143.78,143.78,0,0,1-2.9,20.13,143.78,143.78,0,0,1-2.9-20.13c-.54-6.71-.79-13.42-.79-20.13s.26-13.42.8-20.13A145.25,145.25,0,0,1,2270.16,17.47Z"/><path d="M2303,17.47a146.77,146.77,0,0,1,2.89,20.13c.54,6.71.79,13.42.79,20.13s-.24,13.42-.78,20.13A145.28,145.28,0,0,1,2303,98a142.32,142.32,0,0,1-2.9-20.13q-.81-10.06-.79-20.13t.8-20.13A145.25,145.25,0,0,1,2303,17.47Z"/><path d="M2335.83,17.47a145.25,145.25,0,0,1,2.89,20.13c.54,6.71.79,13.42.8,20.13s-.25,13.42-.79,20.13a143.78,143.78,0,0,1-2.9,20.13,143.78,143.78,0,0,1-2.9-20.13c-.54-6.71-.79-13.42-.79-20.13s.26-13.42.8-20.13A145.25,145.25,0,0,1,2335.83,17.47Z"/><path d="M2368.67,17.47a146.77,146.77,0,0,1,2.89,20.13c.54,6.71.79,13.42.79,20.13s-.24,13.42-.78,20.13a145.28,145.28,0,0,1-2.9,20.13,142.32,142.32,0,0,1-2.9-20.13Q2365,67.8,2365,57.73t.8-20.13A145.25,145.25,0,0,1,2368.67,17.47Z"/><path d="M1449.29,17.47a146.77,146.77,0,0,1,2.89,20.13c.54,6.71.79,13.42.79,20.13s-.24,13.42-.78,20.13a145.28,145.28,0,0,1-2.9,20.13,143.78,143.78,0,0,1-2.9-20.13q-.81-10.06-.79-20.13t.8-20.13A145.25,145.25,0,0,1,1449.29,17.47Z"/><path d="M1482.12,17.47A145.25,145.25,0,0,1,1485,37.6c.54,6.71.79,13.42.8,20.13s-.25,13.42-.79,20.13a143.78,143.78,0,0,1-2.9,20.13,145.28,145.28,0,0,1-2.9-20.13q-.81-10.06-.78-20.13c0-6.71.25-13.42.79-20.13A145.25,145.25,0,0,1,1482.12,17.47Z"/><path d="M1515,17.47a146.77,146.77,0,0,1,2.89,20.13c.54,6.71.79,13.42.79,20.13s-.24,13.42-.78,20.13A145.28,145.28,0,0,1,1515,98a143.78,143.78,0,0,1-2.9-20.13q-.81-10.06-.79-20.13t.8-20.13A145.25,145.25,0,0,1,1515,17.47Z"/><path d="M1547.79,17.47a145.25,145.25,0,0,1,2.89,20.13c.54,6.71.79,13.42.8,20.13s-.25,13.42-.79,20.13a143.78,143.78,0,0,1-2.9,20.13,145.28,145.28,0,0,1-2.9-20.13q-.81-10.06-.78-20.13c0-6.71.25-13.42.79-20.13A145.25,145.25,0,0,1,1547.79,17.47Z"/><path d="M1580.63,17.47c.39,1.2.71,2.39,1.07,3.59l1,3.59c.63,2.4,1.18,4.79,1.7,7.19-.07,4.79,0,9.57,0,14.36V118c-1.12,4.79-2.2,9.58-3.68,14.37-1.48-4.79-2.57-9.58-3.69-14.37V46.2c0-4.79,0-9.57,0-14.36.52-2.4,1.08-4.79,1.7-7.19l1-3.59C1579.91,19.86,1580.23,18.67,1580.63,17.47Z"/><path d="M1613.46,17.47a145.25,145.25,0,0,1,2.89,20.13c.54,6.71.79,13.42.8,20.13s-.25,13.42-.79,20.13a143.78,143.78,0,0,1-2.9,20.13,143.78,143.78,0,0,1-2.9-20.13q-.81-10.06-.78-20.13c0-6.71.25-13.42.79-20.13A145.25,145.25,0,0,1,1613.46,17.47Z"/><path d="M1646.3,17.47a146.77,146.77,0,0,1,2.89,20.13c.54,6.71.79,13.42.79,20.13s-.24,13.42-.78,20.13A145.28,145.28,0,0,1,1646.3,98a143.78,143.78,0,0,1-2.9-20.13q-.81-10.06-.79-20.13t.8-20.13A145.25,145.25,0,0,1,1646.3,17.47Z"/><path d="M1679.13,17.47A145.25,145.25,0,0,1,1682,37.6c.54,6.71.79,13.42.8,20.13s-.25,13.42-.79,20.13a143.78,143.78,0,0,1-2.9,20.13,143.78,143.78,0,0,1-2.9-20.13q-.81-10.06-.78-20.13c0-6.71.25-13.42.79-20.13A145.25,145.25,0,0,1,1679.13,17.47Z"/><path d="M1712,17.47a146.77,146.77,0,0,1,2.89,20.13c.54,6.71.79,13.42.79,20.13s-.24,13.42-.78,20.13A145.28,145.28,0,0,1,1712,98a143.78,143.78,0,0,1-2.9-20.13q-.81-10.06-.79-20.13t.8-20.13A145.25,145.25,0,0,1,1712,17.47Z"/><path d="M1744.8,17.47c.4,1.84.72,3.68,1.08,5.51l.95,5.52q.93,5.51,1.7,11c-.08,7.35,0,14.7,0,22V171.82c-1.12,7.35-2.21,14.7-3.69,22.05-1.48-7.35-2.56-14.7-3.69-22.05V61.57c0-7.35,0-14.7,0-22,.52-3.67,1.07-7.35,1.7-11l1-5.52C1744.09,21.15,1744.41,19.31,1744.8,17.47Z"/><path d="M2762.69,17.47a146.77,146.77,0,0,1,2.89,20.13c.54,6.71.79,13.42.79,20.13s-.24,13.42-.78,20.13a145.28,145.28,0,0,1-2.9,20.13,142.32,142.32,0,0,1-2.9-20.13Q2759,67.8,2759,57.73t.8-20.13A145.25,145.25,0,0,1,2762.69,17.47Z"/><path d="M2795.52,17.47a145.25,145.25,0,0,1,2.89,20.13c.54,6.71.79,13.42.8,20.13s-.25,13.42-.79,20.13a143.78,143.78,0,0,1-2.9,20.13,143.78,143.78,0,0,1-2.9-20.13c-.54-6.71-.79-13.42-.79-20.13s.26-13.42.8-20.13A145.25,145.25,0,0,1,2795.52,17.47Z"/><path d="M2828.36,17.47a146.77,146.77,0,0,1,2.89,20.13c.54,6.71.79,13.42.79,20.13s-.24,13.42-.78,20.13a145.28,145.28,0,0,1-2.9,20.13,142.32,142.32,0,0,1-2.9-20.13q-.81-10.06-.79-20.13t.8-20.13A145.25,145.25,0,0,1,2828.36,17.47Z"/><path d="M2861.19,17.47a145.25,145.25,0,0,1,2.89,20.13c.54,6.71.79,13.42.8,20.13s-.25,13.42-.79,20.13a143.78,143.78,0,0,1-2.9,20.13,143.78,143.78,0,0,1-2.9-20.13c-.54-6.71-.79-13.42-.79-20.13s.26-13.42.8-20.13A145.25,145.25,0,0,1,2861.19,17.47Z"/><path d="M2894,17.47c.39,1.2.71,2.39,1.07,3.59l1,3.59c.63,2.4,1.18,4.79,1.7,7.19-.07,4.79,0,9.57,0,14.36V118c-1.12,4.79-2.2,9.58-3.68,14.37-1.48-4.79-2.57-9.58-3.69-14.37V46.2c0-4.79,0-9.57,0-14.36.52-2.4,1.07-4.79,1.7-7.19l.95-3.59C2893.31,19.86,2893.63,18.67,2894,17.47Z"/><path d="M2926.86,17.47a145.25,145.25,0,0,1,2.89,20.13c.54,6.71.79,13.42.8,20.13s-.25,13.42-.79,20.13a143.78,143.78,0,0,1-2.9,20.13,143.78,143.78,0,0,1-2.9-20.13c-.54-6.71-.79-13.42-.79-20.13s.26-13.42.8-20.13A145.25,145.25,0,0,1,2926.86,17.47Z"/><path d="M2959.7,17.47a146.77,146.77,0,0,1,2.89,20.13c.54,6.71.79,13.42.79,20.13s-.24,13.42-.78,20.13A145.28,145.28,0,0,1,2959.7,98a142.32,142.32,0,0,1-2.9-20.13Q2956,67.8,2956,57.73t.8-20.13A145.25,145.25,0,0,1,2959.7,17.47Z"/><path d="M2992.53,17.47a145.25,145.25,0,0,1,2.89,20.13c.54,6.71.79,13.42.8,20.13s-.25,13.42-.79,20.13a143.78,143.78,0,0,1-2.9,20.13,143.78,143.78,0,0,1-2.9-20.13c-.54-6.71-.79-13.42-.79-20.13s.26-13.42.8-20.13A145.25,145.25,0,0,1,2992.53,17.47Z"/><path d="M3025.37,17.47a146.77,146.77,0,0,1,2.89,20.13c.54,6.71.79,13.42.79,20.13s-.24,13.42-.78,20.13a145.28,145.28,0,0,1-2.9,20.13,142.32,142.32,0,0,1-2.9-20.13q-.81-10.06-.79-20.13c0-6.71.25-13.42.8-20.13A145.25,145.25,0,0,1,3025.37,17.47Z"/><path d="M3058.2,17.47c.4,1.84.72,3.68,1.08,5.51l.95,5.52q.93,5.51,1.7,11c-.08,7.35,0,14.7,0,22V171.82c-1.12,7.35-2.21,14.7-3.69,22.05-1.48-7.35-2.57-14.7-3.69-22.05V61.57c0-7.35,0-14.7,0-22,.52-3.67,1.07-7.35,1.69-11l.95-5.52C3057.49,21.15,3057.8,19.31,3058.2,17.47Z"/><path d="M3386.55,16.86c.4,1.84.72,3.68,1.08,5.53l.95,5.53q.93,5.53,1.69,11.06c-.07,7.38,0,14.75,0,22.13V171.74c-1.12,7.38-2.21,14.75-3.69,22.13-1.48-7.38-2.57-14.75-3.69-22.13V61.11c0-7.38,0-14.75,0-22.13q.77-5.53,1.69-11.06l.95-5.53C3385.84,20.54,3386.15,18.7,3386.55,16.86Z"/><path d="M3353.72,17.47a148.33,148.33,0,0,1,2.89,20.13c.54,6.71.79,13.42.79,20.13s-.24,13.42-.79,20.13A143.75,143.75,0,0,1,3353.72,98a142.32,142.32,0,0,1-2.9-20.13Q3350,67.8,3350,57.73c0-6.71.25-13.42.8-20.13A145.25,145.25,0,0,1,3353.72,17.47Z"/><path d="M3320.88,17.47a145.25,145.25,0,0,1,2.89,20.13c.54,6.71.79,13.42.8,20.13s-.25,13.42-.79,20.13a143.78,143.78,0,0,1-2.9,20.13,143.78,143.78,0,0,1-2.9-20.13c-.54-6.71-.79-13.42-.79-20.13s.26-13.42.8-20.13A145.25,145.25,0,0,1,3320.88,17.47Z"/><path d="M3288.05,17.47a148.33,148.33,0,0,1,2.89,20.13c.54,6.71.79,13.42.79,20.13s-.24,13.42-.79,20.13A143.75,143.75,0,0,1,3288.05,98a142.32,142.32,0,0,1-2.9-20.13q-.81-10.06-.79-20.13c0-6.71.25-13.42.8-20.13A145.25,145.25,0,0,1,3288.05,17.47Z"/><path d="M3255.21,17.47a145.25,145.25,0,0,1,2.89,20.13c.54,6.71.79,13.42.8,20.13s-.25,13.42-.79,20.13a143.78,143.78,0,0,1-2.9,20.13,143.78,143.78,0,0,1-2.9-20.13c-.54-6.71-.79-13.42-.79-20.13s.26-13.42.8-20.13A145.25,145.25,0,0,1,3255.21,17.47Z"/><path d="M3222.38,17.47c.39,1.2.71,2.39,1.07,3.59l1,3.59c.63,2.4,1.18,4.79,1.7,7.19-.07,4.79,0,9.57,0,14.36V118c-1.12,4.79-2.2,9.58-3.68,14.37-1.48-4.79-2.57-9.58-3.69-14.37V46.2c0-4.79,0-9.57,0-14.36.52-2.4,1.07-4.79,1.7-7.19l1-3.59C3221.66,19.86,3222,18.67,3222.38,17.47Z"/><path d="M3189.54,17.47a145.25,145.25,0,0,1,2.89,20.13c.54,6.71.79,13.42.8,20.13s-.25,13.42-.79,20.13a143.78,143.78,0,0,1-2.9,20.13,143.78,143.78,0,0,1-2.9-20.13c-.54-6.71-.79-13.42-.79-20.13s.26-13.42.8-20.13A145.25,145.25,0,0,1,3189.54,17.47Z"/><path d="M3156.71,17.47a146.77,146.77,0,0,1,2.89,20.13c.54,6.71.79,13.42.79,20.13s-.24,13.42-.78,20.13a145.28,145.28,0,0,1-2.9,20.13,142.32,142.32,0,0,1-2.9-20.13Q3153,67.8,3153,57.73c0-6.71.25-13.42.8-20.13A145.25,145.25,0,0,1,3156.71,17.47Z"/><path d="M3123.87,17.47a145.25,145.25,0,0,1,2.89,20.13c.54,6.71.79,13.42.8,20.13s-.25,13.42-.79,20.13a143.78,143.78,0,0,1-2.9,20.13,143.78,143.78,0,0,1-2.9-20.13c-.54-6.71-.79-13.42-.79-20.13s.26-13.42.8-20.13A145.25,145.25,0,0,1,3123.87,17.47Z"/><path d="M3091,17.47a146.77,146.77,0,0,1,2.89,20.13c.54,6.71.79,13.42.79,20.13s-.24,13.42-.78,20.13A145.28,145.28,0,0,1,3091,98a142.32,142.32,0,0,1-2.9-20.13q-.81-10.06-.79-20.13c0-6.71.25-13.42.8-20.13A145.25,145.25,0,0,1,3091,17.47Z"/><path d="M2040.32,17.47a146.77,146.77,0,0,1,2.89,20.13c.54,6.71.79,13.42.79,20.13s-.24,13.42-.78,20.13a145.28,145.28,0,0,1-2.9,20.13,142.32,142.32,0,0,1-2.9-20.13q-.81-10.06-.79-20.13t.8-20.13A145.25,145.25,0,0,1,2040.32,17.47Z"/><path d="M2007.48,17.47a145.25,145.25,0,0,1,2.89,20.13c.54,6.71.79,13.42.8,20.13s-.25,13.42-.79,20.13a143.78,143.78,0,0,1-2.9,20.13,143.78,143.78,0,0,1-2.9-20.13q-.81-10.06-.78-20.13c0-6.71.25-13.42.79-20.13A145.25,145.25,0,0,1,2007.48,17.47Z"/><path d="M1974.65,17.47a146.77,146.77,0,0,1,2.89,20.13c.54,6.71.79,13.42.79,20.13s-.24,13.42-.78,20.13a145.28,145.28,0,0,1-2.9,20.13,142.32,142.32,0,0,1-2.9-20.13q-.81-10.06-.79-20.13t.8-20.13A145.25,145.25,0,0,1,1974.65,17.47Z"/><path d="M1941.81,17.47a145.25,145.25,0,0,1,2.89,20.13c.54,6.71.79,13.42.8,20.13s-.25,13.42-.79,20.13a143.78,143.78,0,0,1-2.9,20.13,143.78,143.78,0,0,1-2.9-20.13c-.54-6.71-.79-13.42-.79-20.13s.26-13.42.8-20.13A145.25,145.25,0,0,1,1941.81,17.47Z"/><path d="M1909,17.47c.39,1.2.71,2.39,1.07,3.59l1,3.59c.63,2.4,1.18,4.79,1.7,7.19-.07,4.79,0,9.57,0,14.36V118c-1.12,4.79-2.2,9.58-3.68,14.37-1.48-4.79-2.57-9.58-3.69-14.37V46.2c0-4.79,0-9.57,0-14.36.52-2.4,1.08-4.79,1.7-7.19l1-3.59C1908.26,19.86,1908.58,18.67,1909,17.47Z"/><path d="M1876.14,17.47A145.25,145.25,0,0,1,1879,37.6c.54,6.71.79,13.42.8,20.13s-.25,13.42-.79,20.13a143.78,143.78,0,0,1-2.9,20.13,143.78,143.78,0,0,1-2.9-20.13q-.81-10.06-.78-20.13c0-6.71.25-13.42.79-20.13A145.25,145.25,0,0,1,1876.14,17.47Z"/><path d="M1843.31,17.47a146.77,146.77,0,0,1,2.89,20.13c.54,6.71.79,13.42.79,20.13s-.24,13.42-.78,20.13a145.28,145.28,0,0,1-2.9,20.13,142.32,142.32,0,0,1-2.9-20.13q-.81-10.06-.79-20.13t.8-20.13A145.25,145.25,0,0,1,1843.31,17.47Z"/><path d="M1810.47,17.47a145.25,145.25,0,0,1,2.89,20.13c.54,6.71.79,13.42.8,20.13s-.25,13.42-.79,20.13a143.78,143.78,0,0,1-2.9,20.13,143.78,143.78,0,0,1-2.9-20.13q-.81-10.06-.78-20.13c0-6.71.25-13.42.79-20.13A145.25,145.25,0,0,1,1810.47,17.47Z"/><path d="M1777.64,17.47a146.77,146.77,0,0,1,2.89,20.13c.54,6.71.79,13.42.79,20.13s-.24,13.42-.78,20.13a145.28,145.28,0,0,1-2.9,20.13,143.78,143.78,0,0,1-2.9-20.13q-.81-10.06-.79-20.13t.8-20.13A145.25,145.25,0,0,1,1777.64,17.47Z"/></g><g id="ruler1"><path d="M420.62,246.63a18.13,18.13,0,0,0,5.8-.77,10.3,10.3,0,0,0,3.71-2.1,10.72,10.72,0,0,0,2.32-3.1A28.18,28.18,0,0,0,434,236.9h8.19v77.44H430V255.26h-9.4Z"/><path d="M765.73,255.93c0-3.47-.58-5.81-1.72-7a6,6,0,0,0-4.59-1.82,6.2,6.2,0,0,0-4.59,1.71q-1.73,1.72-1.72,5.92V263h-11.5v-7.52q0-9.41,4.59-14.44t13.55-5q9,0,13.55,5t4.6,14.44a32.34,32.34,0,0,1-1.77,11,40.79,40.79,0,0,1-4.48,9,61.79,61.79,0,0,1-5.87,7.47q-3.15,3.43-5.86,6.53a43.31,43.31,0,0,0-4.48,6,11.69,11.69,0,0,0-1.77,6.14,8.63,8.63,0,0,0,.11,1.66h23v11.06H741.61v-9.51a26.11,26.11,0,0,1,1.77-10,35.25,35.25,0,0,1,4.48-7.91,67.39,67.39,0,0,1,5.81-6.75,72.92,72.92,0,0,0,5.81-6.69,35.2,35.2,0,0,0,4.48-7.75A25.2,25.2,0,0,0,765.73,255.93Z"/><path d="M1094.08,255.93c0-3.47-.58-5.81-1.72-7a6,6,0,0,0-4.59-1.82,6.2,6.2,0,0,0-4.59,1.71c-1.14,1.15-1.72,3.12-1.72,5.92v5H1070v-4.2q0-9.41,4.59-14.44t13.55-5q9,0,13.56,5t4.59,14.44v2q0,12.39-8.52,15.93a12.22,12.22,0,0,1,6.58,6.14,23.82,23.82,0,0,1,1.94,10.12v6.09q0,9.4-4.59,14.43t-13.56,5q-9,0-13.55-5T1070,295.76v-6.42h11.5v7.19c0,2.8.58,4.78,1.72,5.92a6.2,6.2,0,0,0,4.59,1.71,6.09,6.09,0,0,0,4.59-1.77c1.14-1.17,1.72-3.5,1.72-7v-6.08c0-3.61-.63-6.16-1.88-7.63s-3.29-2.22-6.09-2.22H1082V268.43h4.76a7.65,7.65,0,0,0,5.36-1.77q1.93-1.77,1.94-6.42Z"/><path d="M1395.87,289.23,1418,236.9h13.28v52.33H1437v11.06h-5.75v14h-12v-14h-23.46Zm23.46,0v-29.1l-12.28,29.1Z"/><path d="M1738.16,289.34v7.19c0,2.8.57,4.76,1.72,5.86a7.18,7.18,0,0,0,9.18,0c1.14-1.1,1.72-3.06,1.72-5.86v-17c0-2.8-.58-4.77-1.72-5.92a7,7,0,0,0-9.18,0q-1.73,1.73-1.72,5.92v2.33h-11.5l2.21-44.92H1761V248h-21.13l-1,18.48q3.42-5.64,10.62-5.64,6.75,0,10.12,4.53c2.25,3,3.38,7.41,3.38,13.17v17.26q0,9.4-4.6,14.43t-13.55,5q-9,0-13.55-5t-4.59-14.43v-6.42Z"/><path d="M2054.68,256.15q0-9.84,4.53-15t14.05-5.15q9,0,13.56,5t4.59,14.44v2H2079.9v-2.77q0-4.2-1.71-5.92a7.12,7.12,0,0,0-9.57.28c-1.18,1.33-1.77,3.83-1.77,7.52v14.16q3.2-6.86,11.28-6.86,6.75,0,10.12,4.54t3.38,13.16v14.17q0,9.4-4.76,14.43t-13.72,5q-9,0-13.72-5t-4.75-14.43ZM2073.15,275a6.2,6.2,0,0,0-4.59,1.71q-1.71,1.72-1.71,5.92v13.94c0,2.8.57,4.76,1.71,5.86a7.18,7.18,0,0,0,9.18,0c1.15-1.1,1.72-3.06,1.72-5.86V282.59q0-4.2-1.72-5.92A6.2,6.2,0,0,0,2073.15,275Z"/><path d="M2419.76,236.9v10.62l-17.93,66.82h-12.17L2407.48,248h-24.23V236.9Z"/><path d="M2748.88,295.76q0,9.4-4.87,14.43t-14.16,5q-9.29,0-14.16-5t-4.87-14.43v-6.09a24.84,24.84,0,0,1,1.77-9.79,12.83,12.83,0,0,1,5.76-6.36q-7.53-4.09-7.53-15.6v-2.43q0-9.41,4.87-14.44t14.16-5q9.3,0,14.16,5t4.87,14.44v2.43q0,11.4-7.52,15.6a12.86,12.86,0,0,1,5.75,6.36,24.84,24.84,0,0,1,1.77,9.79ZM2723,260.24q0,4.65,1.94,6.42a7.65,7.65,0,0,0,9.79,0q2-1.77,2-6.42v-4.31q0-5.2-2-7a7.43,7.43,0,0,0-9.74,0c-1.32,1.22-2,3.56-2,7Zm0,35.18c0,3.47.67,5.8,2,7a7.07,7.07,0,0,0,4.87,1.77,6.85,6.85,0,0,0,4.81-1.77c1.29-1.17,2-3.5,2.05-7v-7.19c0-3.09-.61-5.33-1.83-6.69a7.2,7.2,0,0,0-10.06,0c-1.22,1.36-1.83,3.6-1.83,6.69Z"/><path d="M3076.68,295.09q0,9.86-4.54,15t-14,5.15q-9,0-13.55-5T3040,295.76v-2h11.5v2.77c0,2.8.57,4.78,1.72,5.92a6.2,6.2,0,0,0,4.59,1.71,6.31,6.31,0,0,0,5-2c1.18-1.33,1.77-3.83,1.77-7.52V280.49q-3.21,6.86-11.29,6.86-6.75,0-10.12-4.54t-3.38-13.16V255.49q0-9.41,4.76-14.44t13.72-5q9,0,13.72,5t4.76,14.44Zm-18.48-18.81a6.2,6.2,0,0,0,4.59-1.71q1.73-1.71,1.72-5.92V254.71c0-2.8-.57-4.76-1.72-5.86a7.18,7.18,0,0,0-9.18,0c-1.14,1.1-1.72,3.06-1.72,5.86v13.94c0,2.81.58,4.78,1.72,5.92A6.2,6.2,0,0,0,3058.2,276.28Z"/><path d="M3350.43,246.63a18.24,18.24,0,0,0,5.81-.77,10.25,10.25,0,0,0,3.7-2.1,10.75,10.75,0,0,0,2.33-3.1,29.57,29.57,0,0,0,1.55-3.76H3372v77.44h-12.17V255.26h-9.4Z"/><path d="M3385.72,255.49q0-9.41,4.76-14.44t13.72-5q9,0,13.72,5t4.75,14.44v40.27q0,9.4-4.75,14.43t-13.72,5q-9,0-13.72-5t-4.76-14.43Zm12.17,41c0,2.8.57,4.78,1.71,5.92a7,7,0,0,0,9.19,0c1.14-1.14,1.71-3.12,1.71-5.92V254.71q0-4.2-1.71-5.92a7,7,0,0,0-9.19,0q-1.71,1.72-1.71,5.92Z"/><path d="M84.58,255.49q0-9.41,4.76-14.44t13.71-5q9,0,13.72,5t4.76,14.44v40.27q0,9.4-4.76,14.43t-13.72,5q-9,0-13.71-5t-4.76-14.43Zm12.17,41c0,2.8.57,4.78,1.71,5.92a7,7,0,0,0,9.18,0c1.15-1.14,1.72-3.12,1.72-5.92V254.71q0-4.2-1.72-5.92a7,7,0,0,0-9.18,0q-1.71,1.72-1.71,5.92Z"/></g></g></svg>