<svg xmlns="http://www.w3.org/2000/svg" viewBox="0 0 238.19 314.08"><defs><style>.cls-1,.cls-4{fill:#ebb694;}.cls-2,.cls-5,.cls-7,.cls-8{fill:none;}.cls-10,.cls-2,.cls-4,.cls-5,.cls-7,.cls-8,.cls-9{stroke:#231f20;}.cls-2,.cls-8{stroke-miterlimit:10;}.cls-2,.cls-4,.cls-7{stroke-width:4.3px;}.cls-10,.cls-3{fill:#d1a485;}.cls-10,.cls-11,.cls-4,.cls-5,.cls-7,.cls-9{stroke-linecap:round;stroke-linejoin:round;}.cls-5{stroke-width:1.17px;}.cls-6{fill:#231f20;}.cls-8{stroke-width:1.56px;}.cls-11,.cls-9{fill:#fff;}.cls-10,.cls-9{stroke-width:2.74px;}.cls-11{stroke:#9f5b4f;stroke-width:5.09px;}</style></defs><g id="Layer_2" data-name="Layer 2"><g id="ruler_face"><path class="cls-1" d="M212,136.41q.65,2.64,1.18,5.22a185.25,185.25,0,0,1,3.65,47.15c-1.72,35-12.63,64.61-21.28,83.44a61.41,61.41,0,0,1-15.81,22.34C175.93,298,156,314.75,132.6,308.85a44.44,44.44,0,0,1-17.42-9,311.75,311.75,0,0,1-27.75-29.07,309.54,309.54,0,0,1-19.82-26.35c-2.28-3.83-4.61-7.94-6.92-12.31-4-7.45-7.9-15.68-11.63-24.67s-6.81-17.76-9.3-25.9c-.44-1.42-.86-2.82-1.26-4.21l-.21-.76c-1.07-3.71-2-7.29-2.85-10.73-1-4.46-9.43-47,20.69-80.82a88.35,88.35,0,0,1,7.8-7.71c23.84-20.8,51.79-22.3,57.32-22.49a31.13,31.13,0,0,1,9.19,2.06c6,2.36,8.19,5.48,11.53,7.67,8.82,5.81,19.71,1.44,26.3,1.52C186.52,66.28,204.29,104.1,212,136.41Z"/><path class="cls-2" d="M212.52,138.24q.64,2.64,1.18,5.23a184.69,184.69,0,0,1,3.65,47.14c-1.72,35-12.63,64.61-21.28,83.44a61.41,61.41,0,0,1-15.81,22.34c-3.84,3.41-23.78,20.19-47.17,14.29a44.31,44.31,0,0,1-17.42-9,311.75,311.75,0,0,1-27.75-29.07A309.54,309.54,0,0,1,68.1,246.26c-2.28-3.83-4.6-7.94-6.92-12.31-4-7.45-7.9-15.67-11.63-24.67s-6.81-17.75-9.3-25.9c-.44-1.42-.86-2.82-1.26-4.21l-.21-.76c-1.07-3.71-2-7.29-2.85-10.73-1-4.46-9.43-47,20.7-80.82a86.93,86.93,0,0,1,7.79-7.71c23.84-20.8,51.79-22.29,57.32-22.49a31.13,31.13,0,0,1,9.19,2.06c6,2.37,8.19,5.48,11.53,7.68,8.82,5.8,19.71,1.43,26.3,1.51C187,68.11,204.78,105.93,212.52,138.24Z"/><path class="cls-3" d="M208.61,135.12c-7.2,1.6,11.08,52.85-8.63,95.49-.52,1.13-1.45,3.13-2.82,5.68-.54-4.23-2.61-14.28-10.92-19.42-1.28-.79-12.45-.27-18,1.44-4.5,1.39-8.57,2.83-12.2,4.24-11.12,4.3-12.15,6.1-18.28,8.16-7.32,2.46-9.8,1.43-20,2.81a123.12,123.12,0,0,0-25.13,6.22,16.24,16.24,0,0,0-4.47,8.69,16.53,16.53,0,0,0,2.57,11.62l.18.28c-34.79-27.53-43.08-82.69-46.76-81.47-.42.14-.8,1-.43,4.58-.41.81-1.19,2.41-2.17,4.68,2.12,6.43,4.58,13.16,7.46,20.11,3.73,9,7.68,17.23,11.63,24.68,2.32,4.37,4.64,8.47,6.92,12.3a311.17,311.17,0,0,0,47.57,55.42,44.3,44.3,0,0,0,17.42,9c23.39,5.89,43.33-10.89,47.17-14.3A61.26,61.26,0,0,0,195.59,273c8.65-18.83,19.56-48.4,21.28-83.45a184.75,184.75,0,0,0-3.65-47.14c-.36-1.72-.75-3.47-1.18-5.23C211.13,136.11,209.82,134.85,208.61,135.12ZM154.25,273.88c-27.33,8-51.66-5.88-55-7.88q-2.91-1.72-5.61-3.69a2.43,2.43,0,0,0,2.09-.25c.8-.6-2.37-7.74-2.05-11.41a10.75,10.75,0,0,1,1-3.52c3-6.07,26.05-2.2,46.65-10.39,12.1-4.82,25.07-7.34,37-12.66a6.81,6.81,0,0,1,4.7-.62c3.09.91,3.87,4.5,7.29,9.87a47.81,47.81,0,0,0,5,6.47C188.67,250.8,175.76,267.59,154.25,273.88Z"/><path class="cls-4" d="M60.7,232.91a6.41,6.41,0,0,1-4,7c-2.9.91-5.49-1.21-5.67-1.36a141,141,0,0,1-12.22-16.73,139,139,0,0,1-10.48-20.38c-5.68-9.62-4.38-19.47.68-23,.68-.48,3.69-2.41,9.29-1.11l.21.76c.41,1.39.83,2.79,1.26,4.22,2.49,8.14,5.54,16.82,9.3,25.89S56.75,225.46,60.7,232.91Z"/><path class="cls-5" d="M52.28,233.69q-26.66-38.07-20.9-43.83c1.34-1.35,1.26-2.09,5.24-.8"/><path class="cls-4" d="M235.7,169.48c1,14.5-3.87,24.49-9.43,25.35-.7.11-4.36.53-9.4-5.27a184.75,184.75,0,0,0-3.65-47.14c-.36-1.72-.75-3.47-1.18-5.23a14.15,14.15,0,0,1,13.21-8,13.15,13.15,0,0,1,5.63,1.48C237.19,134,236.12,162.57,235.7,169.48Z"/><path class="cls-6" d="M217.64,141.62c6.65-6.71,8.8,3.84,9.45,8.9a141,141,0,0,1,1,16.82c0,3.74,0,7.48-.08,11.22a.22.22,0,0,1-.23.22.21.21,0,0,1-.22-.23c0-3.73,0-7.47,0-11.2a139.69,139.69,0,0,0-1.19-16.73c-.46-2.64-1.49-10.11-4.8-10.27a5.32,5.32,0,0,0-3.23,1.93.47.47,0,0,1-.67-.66Z"/><path class="cls-6" d="M63.94,78.1a87.07,87.07,0,0,0-7.79,7.72C26,119.61,34.49,162.18,35.45,166.64c.9,3.67,1.92,7.51,3.06,11.48A59.84,59.84,0,0,1,20.4,165.74c-20.27-20.36-18.47-49-18-54.82l11-26.38c3.26-21.16,14.91-34,24.46-33.3,1.49.11,6.51.8,11.92,8.41Z"/><path class="cls-7" d="M63.94,78.1a87.07,87.07,0,0,0-7.79,7.72C26,119.61,34.49,162.18,35.45,166.64c.9,3.67,1.92,7.51,3.06,11.48A59.84,59.84,0,0,1,20.4,165.74c-20.27-20.36-18.47-49-18-54.82l11-26.38c3.26-21.16,14.91-34,24.46-33.3,1.49.11,6.51.8,11.92,8.41Z"/><path class="cls-6" d="M230,106.67c.16,11.8-1.57,18.26-4.71,22.55a14.15,14.15,0,0,0-13.21,8c-7.74-32.3-25.5-70.13-43.75-70.33-6.6-.07-17.49,4.29-26.31-1.51-3.34-2.2-5.53-5.31-11.53-7.68a31.13,31.13,0,0,0-9.19-2.06c-5.53.2-33.48,1.7-57.32,22.49L49.75,59.65a28.36,28.36,0,0,1-.57-15.15c3.2-12.65,16-22.34,32.45-24.74L54.08,15.22a115.19,115.19,0,0,1,54.45-5.55L80.45,1.57a440.91,440.91,0,0,1,76,6.71c22.12,3.93,33.21,7.72,42.92,16.52,8.74,7.9,12.44,16.29,19.14,31.48C222.83,66.08,229.67,84.17,230,106.67Z"/><path class="cls-6" d="M232.11,106.64c0,8-.26,17-5.17,23.82a2.08,2.08,0,0,1-1.77.85,12.1,12.1,0,0,0-11.31,6.75,2,2,0,0,1-3.77-.4c-4.68-19.83-16.53-54.59-33.69-66.4a15.06,15.06,0,0,0-11.14-2.61c-5.74.72-11.69,2-17.52.68a19.61,19.61,0,0,1-8.24-4c-1.17-.94-2.21-1.88-3.3-2.73a27.4,27.4,0,0,0-15-5.65A92.42,92.42,0,0,0,106,58.85,91.46,91.46,0,0,0,64.64,78.9a1,1,0,0,1-1.53-.16L49,60.23C41.9,38,61,21.92,81.52,19.06v1.4C72.33,18.94,63.14,17.48,54,16a.78.78,0,0,1-.13-1.51,138.45,138.45,0,0,1,27-6.56,83.81,83.81,0,0,1,20.93-.52c2.3.39,4.57,1,6.87,1.38l-.37,1.74-7-2.18q-3.48-1.09-7-2.14c-2.33-.7-4.67-1.37-7-2s-4.7-1.28-7-1.9a.73.73,0,0,1,.2-1.43C89.31.65,98.23-.51,107.09.26A416.63,416.63,0,0,1,160,6.53c16.45,3.09,32.68,6.9,44.34,19.94,7.38,8,11.44,18.24,15.78,28a132,132,0,0,1,12,52.21Zm-4.3.06A127.36,127.36,0,0,0,216,56.25c-4-8.84-7.71-18.07-14-25.44-11.23-13.11-26.59-16.54-42.84-19.62a468.25,468.25,0,0,0-58.92-7c-4.39-.37-8.78-1-13.18-1.43-2.2-.21-4.41-.33-6.61-.41l.2-1.43c9.14,2.91,18.82,5.53,28.13,7.94a.89.89,0,0,1-.33,1.75,26.81,26.81,0,0,0-3.47-.19c-2.26,0-4.58.15-6.84,0-10.22-.48-20.55-.23-30.6,1.91A102.63,102.63,0,0,0,54.34,16l-.13-1.51c9.18,1.53,18.35,3.1,27.53,4.61a.71.71,0,0,1,0,1.4c-8.3,1.25-16.42,4.44-22.75,10-8.44,7.38-11.8,18.16-8.33,28.92l-.16-.3L64.78,77.46l-1.53-.15A89.52,89.52,0,0,1,76.05,68a97,97,0,0,1,45.16-13.69,31.36,31.36,0,0,1,13,3.61,45.82,45.82,0,0,1,7.1,5.18,16.3,16.3,0,0,0,7.06,3.34c4,.83,8.09.37,12.23-.26,3-.41,5.79-1,8.89-.81a17,17,0,0,1,4.59,1.08c20.48,8.35,35,49.94,39.92,70.32l-3.77-.4a16.23,16.23,0,0,1,15.1-9.18l-1.77.85a18,18,0,0,0,2.36-4.65c1.77-5.32,1.93-11,1.89-16.64Z"/><path class="cls-8" d="M123.55,195a25.91,25.91,0,0,0-1.75,12.44,25.54,25.54,0,0,0,2.5,8.6"/><path class="cls-9" d="M162.88,171.84c13.63-2.34,22.45-17.16,19.72-33.11a34,34,0,0,0-2.52-8.27,157.32,157.32,0,0,1-32.59,9.12c-5.16.86-10.08,1.41-14.72,1.73a34.64,34.64,0,0,0,.5,5.87C136,163.13,149.26,174.17,162.88,171.84Z"/><path class="cls-9" d="M100.56,188.54c-13,4.8-28-3.62-33.63-18.8a33.89,33.89,0,0,1-2-8.42,157.34,157.34,0,0,0,32.79-8.41c4.89-1.84,9.43-3.82,13.6-5.86a33.86,33.86,0,0,1,2.51,5.33C119.49,167.56,113.53,183.75,100.56,188.54Z"/><circle class="cls-6" cx="152.42" cy="153.91" r="6.5"/><circle class="cls-6" cx="100.66" cy="167.79" r="6.5"/><path class="cls-10" d="M111.36,147.05c-4.17,2-8.71,4-13.6,5.86A157.34,157.34,0,0,1,65,161.32c-1.22-12.34,4.69-23.83,15.26-27.74C91.59,129.37,104.55,135.31,111.36,147.05Z"/><path class="cls-10" d="M132.77,141.31c4.64-.32,9.56-.87,14.72-1.73a157.32,157.32,0,0,0,32.59-9.12c-5.11-11.3-16-18.29-27.09-16.39C141.05,116.11,132.8,127.74,132.77,141.31Z"/><path class="cls-6" d="M109.87,130.13a4.61,4.61,0,0,0-2.35-8.76C83.92,114.59,61.53,119,51,133A33.12,33.12,0,0,0,45,147.53Q42,157.2,43.86,158.2q1,.56,3.53-1.6c1.21-2.47,13.61-26.68,38.9-29.86A46.48,46.48,0,0,1,109.87,130.13Z"/><path class="cls-6" d="M119.54,122.69q-1.17,5.66.49,6.66,2.94,1.8,14.84-11.1c7.49-5.78,21.24-14.39,39.36-15.09a60.6,60.6,0,0,1,9.49.37c4.13-.42,6.43-3.38,6.06-5.19-.33-1.62-3-3.18-6.27-2.85a51.59,51.59,0,0,0-20.77-2.14C136.5,96.12,121.84,119,119.54,122.69Z"/><path class="cls-6" d="M130.77,158.72a107.92,107.92,0,0,0,12.17,21.85,106.56,106.56,0,0,0,16.83,18.35,9.79,9.79,0,0,1,2.77,8.88c-.34,2.28-2.16,3.46-4.13,4.25a20,20,0,0,0-5.5,3.08,20.28,20.28,0,0,0-4.19,4.88,21.17,21.17,0,0,1-18,5.16c-1.24-.22-2.32-.59-3.54-.76-3.56-.63-6.93.26-10.4,1.18A12.52,12.52,0,0,1,109,225c-7.3-3.4-.18-16.4,2.14-21.4a84.11,84.11,0,0,0,4.14-10c3.51-10.25,5-21.08,5.6-31.88a5.35,5.35,0,0,1,9.94-3Zm-2.07,1.08a2.9,2.9,0,0,0-5.1.62,4.4,4.4,0,0,0-.21,1.4c-.06,1.22-.11,2.44-.19,3.67a110.72,110.72,0,0,1-5.69,28.88,82.57,82.57,0,0,1-3.52,8.55,87.45,87.45,0,0,0-5.09,11.53c-.67,2.34-1.68,5.62-.13,7.72a4.79,4.79,0,0,0,2.63,1.29c2.85.89,5.6-.18,8.45-.82a20.83,20.83,0,0,1,7.63-.3c1.21.16,2.45.55,3.6.76a18.37,18.37,0,0,0,10.16-1,18.79,18.79,0,0,0,5.75-3.71l-.23.28a18.38,18.38,0,0,1,7.49-7.49c1.05-.56,2.14-1,3.13-1.43a6.25,6.25,0,0,0,2.28-1.38,5.08,5.08,0,0,0,.53-2.43,7.52,7.52,0,0,0-2.07-5.07,109,109,0,0,1-29.42-41Z"/><path class="cls-11" d="M93.49,250.68c1.28,1.33,22,22,50.89,16a55.35,55.35,0,0,0,41.9-40.54,283.83,283.83,0,0,1-45.74,16.37A282.31,282.31,0,0,1,93.49,250.68Z"/><path class="cls-6" d="M92.79,239.9A12,12,0,0,0,88,255a14.54,14.54,0,0,0,3.19,4.71.5.5,0,0,1,0,.7.49.49,0,0,1-.7,0A16.61,16.61,0,0,1,88.56,258c-2.79-4.21-3.21-10.07-.3-14.33a13.75,13.75,0,0,1,4.33-4.09.19.19,0,0,1,.2.32Z"/><path class="cls-6" d="M182,215.49a13.47,13.47,0,0,1,14.73,12.19,14.48,14.48,0,0,1,0,3.09.77.77,0,1,1-1.52-.21A12.74,12.74,0,0,0,182,216.09a.3.3,0,0,1-.05-.6Z"/></g></g></svg>